<svg width="402" height="874" viewBox="0 0 402 874" fill="none" xmlns="http://www.w3.org/2000/svg">
<rect width="402" height="874" fill="#0270FF"/>
<path d="M236.861 436.636C236.861 436.495 236.86 436.355 236.856 436.216C236.855 436.156 236.853 436.097 236.851 436.038C236.851 436.027 236.85 436.016 236.85 436.005C236.848 435.958 236.846 435.911 236.844 435.863C236.843 435.835 236.842 435.807 236.84 435.779C236.839 435.752 236.837 435.726 236.836 435.699C236.833 435.651 236.831 435.603 236.828 435.554C236.826 435.53 236.825 435.505 236.823 435.48C236.82 435.441 236.818 435.401 236.815 435.361C236.811 435.316 236.808 435.271 236.804 435.226C236.802 435.203 236.8 435.18 236.798 435.156C236.795 435.112 236.791 435.067 236.786 435.023C236.784 434.997 236.782 434.972 236.779 434.946C236.775 434.904 236.771 434.863 236.767 434.822C236.763 434.789 236.76 434.757 236.756 434.725C236.752 434.688 236.748 434.651 236.744 434.614C236.74 434.584 236.737 434.555 236.733 434.525C236.728 434.484 236.722 434.442 236.717 434.401C236.713 434.372 236.71 434.343 236.706 434.314C236.701 434.277 236.696 434.239 236.69 434.202C236.686 434.17 236.681 434.138 236.676 434.107C236.67 434.066 236.664 434.025 236.658 433.984C236.653 433.953 236.648 433.921 236.643 433.89C236.638 433.86 236.634 433.831 236.629 433.801C236.62 433.746 236.61 433.691 236.6 433.637C236.598 433.623 236.596 433.609 236.593 433.595C236.587 433.559 236.58 433.524 236.574 433.488C236.554 433.383 236.534 433.278 236.512 433.173C236.491 433.071 236.469 432.969 236.447 432.867C236.416 432.731 236.384 432.596 236.35 432.461C236.343 432.432 236.336 432.403 236.328 432.373C236.319 432.336 236.309 432.298 236.299 432.26C236.292 432.233 236.285 432.205 236.277 432.178C236.266 432.137 236.255 432.096 236.244 432.055C236.237 432.03 236.23 432.005 236.223 431.981C236.213 431.945 236.203 431.909 236.193 431.874C236.183 431.841 236.174 431.808 236.164 431.775C236.155 431.744 236.146 431.714 236.137 431.684C236.126 431.649 236.116 431.615 236.105 431.58C236.096 431.549 236.086 431.518 236.076 431.486C236.065 431.453 236.055 431.419 236.044 431.385C236.034 431.355 236.024 431.324 236.014 431.294C236.002 431.255 235.989 431.216 235.976 431.177C235.969 431.157 235.963 431.137 235.956 431.117C235.939 431.069 235.923 431.021 235.906 430.973C235.9 430.956 235.894 430.939 235.888 430.922C235.873 430.879 235.857 430.836 235.842 430.792C235.837 430.778 235.832 430.764 235.827 430.75L235.798 430.673C235.792 430.657 235.786 430.641 235.78 430.625C235.766 430.588 235.753 430.551 235.739 430.515C235.727 430.483 235.715 430.452 235.702 430.421C235.691 430.391 235.679 430.361 235.667 430.332C235.653 430.295 235.638 430.259 235.624 430.223C235.614 430.198 235.604 430.174 235.594 430.149C235.58 430.113 235.565 430.077 235.55 430.041C235.537 430.01 235.524 429.98 235.511 429.949C235.5 429.922 235.489 429.896 235.477 429.869C235.463 429.836 235.449 429.803 235.435 429.77C235.42 429.737 235.405 429.704 235.39 429.671C235.377 429.64 235.363 429.609 235.349 429.578C235.238 429.333 235.122 429.09 235 428.851C234.991 428.833 234.982 428.816 234.972 428.798C234.952 428.758 234.931 428.717 234.91 428.677C234.892 428.642 234.873 428.608 234.855 428.573C234.844 428.552 234.832 428.53 234.821 428.509C234.804 428.478 234.787 428.447 234.77 428.417C234.751 428.38 234.731 428.344 234.711 428.308C234.704 428.297 234.698 428.285 234.692 428.274C234.665 428.226 234.638 428.178 234.611 428.13C234.602 428.116 234.594 428.101 234.585 428.087C234.564 428.049 234.542 428.011 234.52 427.973C234.503 427.944 234.486 427.916 234.469 427.887C234.451 427.857 234.434 427.828 234.416 427.798C234.4 427.771 234.383 427.744 234.367 427.718C234.351 427.691 234.334 427.664 234.318 427.638C234.296 427.603 234.275 427.568 234.253 427.533C234.24 427.513 234.228 427.493 234.215 427.473C234.194 427.44 234.174 427.408 234.153 427.375C234.134 427.347 234.116 427.319 234.098 427.291C234.081 427.264 234.063 427.237 234.046 427.211C234.023 427.176 234 427.141 233.977 427.107C233.964 427.088 233.951 427.068 233.938 427.049C233.916 427.017 233.895 426.985 233.873 426.953C233.854 426.925 233.835 426.898 233.816 426.87C233.803 426.851 233.789 426.833 233.776 426.814C233.752 426.78 233.728 426.745 233.704 426.711C233.589 426.549 233.471 426.388 233.35 426.23C233.288 426.149 233.225 426.069 233.162 425.988C233.142 425.964 233.123 425.939 233.103 425.915C233.036 425.831 232.968 425.748 232.899 425.666C232.885 425.648 232.87 425.63 232.855 425.613C232.826 425.577 232.796 425.542 232.766 425.507C232.754 425.493 232.742 425.479 232.73 425.465C232.701 425.431 232.672 425.398 232.642 425.364C232.627 425.346 232.612 425.329 232.596 425.311C232.569 425.281 232.543 425.251 232.516 425.221C232.499 425.201 232.481 425.182 232.464 425.163C232.438 425.134 232.412 425.105 232.386 425.077C232.367 425.056 232.347 425.034 232.328 425.013C232.303 424.986 232.278 424.959 232.252 424.932C232.231 424.909 232.21 424.886 232.188 424.864C232.163 424.837 232.138 424.811 232.113 424.784C232.095 424.765 232.076 424.746 232.058 424.727C232.032 424.7 232.005 424.673 231.979 424.645C231.958 424.624 231.937 424.603 231.917 424.582C231.888 424.553 231.858 424.524 231.829 424.494C231.815 424.48 231.801 424.466 231.787 424.452C231.755 424.421 231.724 424.39 231.692 424.359C231.671 424.339 231.65 424.319 231.63 424.299C231.605 424.275 231.581 424.252 231.557 424.228C231.534 424.206 231.511 424.185 231.487 424.163C231.459 424.136 231.431 424.11 231.403 424.084C231.385 424.067 231.366 424.05 231.348 424.033C231.32 424.007 231.292 423.981 231.264 423.956C231.188 423.886 231.111 423.818 231.034 423.75C230.88 423.615 230.724 423.482 230.565 423.353C230.546 423.337 230.527 423.322 230.508 423.306C230.426 423.239 230.343 423.173 230.259 423.108C230.238 423.092 230.218 423.076 230.198 423.06C230.171 423.04 230.144 423.019 230.117 422.999C230.089 422.978 230.061 422.956 230.033 422.935C230.013 422.92 229.992 422.905 229.972 422.89C229.936 422.863 229.901 422.837 229.865 422.81C229.847 422.797 229.829 422.784 229.811 422.771C229.778 422.747 229.746 422.724 229.713 422.7C229.687 422.682 229.662 422.663 229.636 422.645C229.607 422.624 229.577 422.603 229.548 422.583C229.522 422.565 229.496 422.547 229.47 422.529C229.443 422.51 229.415 422.491 229.387 422.472C229.359 422.453 229.331 422.434 229.303 422.415C229.277 422.398 229.251 422.38 229.225 422.363C229.196 422.343 229.166 422.324 229.137 422.304C229.11 422.286 229.083 422.269 229.055 422.251C229.024 422.231 228.993 422.21 228.961 422.19C228.942 422.178 228.922 422.166 228.903 422.153C228.867 422.131 228.831 422.108 228.795 422.085C228.771 422.07 228.746 422.055 228.722 422.04C228.69 422.02 228.658 422.001 228.626 421.981C228.609 421.971 228.592 421.961 228.575 421.951C228.48 421.893 228.383 421.836 228.286 421.78C228.19 421.725 228.093 421.67 227.995 421.616C227.713 421.461 227.426 421.314 227.134 421.174C227.1 421.158 227.066 421.141 227.031 421.125C227.013 421.117 226.995 421.108 226.976 421.1C226.934 421.08 226.892 421.06 226.85 421.041C226.818 421.027 226.786 421.012 226.754 420.998C226.732 420.988 226.71 420.978 226.688 420.969C226.641 420.948 226.594 420.927 226.547 420.907C226.535 420.902 226.522 420.896 226.51 420.891C226.465 420.872 226.42 420.853 226.376 420.834C226.353 420.825 226.331 420.815 226.309 420.806C226.276 420.792 226.242 420.779 226.208 420.765C226.173 420.751 226.138 420.737 226.103 420.723C226.078 420.713 226.053 420.703 226.029 420.693C225.995 420.68 225.962 420.667 225.928 420.654C225.892 420.64 225.856 420.626 225.819 420.612C225.793 420.602 225.767 420.593 225.74 420.583C225.708 420.571 225.677 420.559 225.645 420.547C225.604 420.533 225.564 420.518 225.524 420.504C225.502 420.496 225.48 420.488 225.458 420.48C225.419 420.467 225.38 420.453 225.342 420.44C225.311 420.429 225.281 420.419 225.251 420.409C225.223 420.399 225.195 420.39 225.168 420.381C225.133 420.37 225.099 420.358 225.065 420.347C225.024 420.334 224.983 420.321 224.942 420.308C224.918 420.3 224.894 420.292 224.87 420.285C224.83 420.273 224.79 420.261 224.75 420.249C224.358 420.13 223.96 420.025 223.557 419.934C223.535 419.929 223.512 419.924 223.49 419.919C223.45 419.91 223.411 419.901 223.371 419.893C223.343 419.887 223.316 419.881 223.288 419.875C223.174 419.852 223.06 419.829 222.945 419.808C222.927 419.804 222.908 419.801 222.89 419.798C222.847 419.79 222.804 419.782 222.761 419.775C222.735 419.77 222.709 419.766 222.683 419.761C222.637 419.753 222.591 419.746 222.544 419.738C222.528 419.735 222.511 419.733 222.494 419.73C222.441 419.722 222.388 419.713 222.335 419.706C222.321 419.703 222.306 419.701 222.292 419.699C222.241 419.692 222.189 419.684 222.138 419.677C222.12 419.675 222.102 419.672 222.085 419.67C221.969 419.654 221.852 419.64 221.735 419.627C221.711 419.624 221.686 419.621 221.662 419.619C221.545 419.606 221.428 419.595 221.311 419.584C221.309 419.584 221.307 419.584 221.306 419.584C219.052 419.32 209.78 417.949 204.641 412.79C200.261 408.393 199.079 401.639 198.761 398.478C198.761 398.448 198.761 398.418 198.761 398.388C198.761 388.935 191.127 381.271 181.71 381.271C172.293 381.271 164.659 388.935 164.659 398.388C164.659 407.842 172.293 415.505 181.71 415.505C181.789 415.505 181.868 415.504 181.947 415.503L181.946 415.505C181.946 415.505 189.589 415.505 195.469 421.408C196.673 422.617 197.695 424.036 198.561 425.543C202.45 432.311 202.45 440.96 198.561 447.728C197.695 449.235 196.673 450.655 195.469 451.864C189.589 457.766 181.946 457.766 181.946 457.766L181.947 457.768C181.868 457.767 181.789 457.766 181.71 457.766C172.293 457.766 164.659 465.43 164.659 474.883C164.659 484.336 172.293 492 181.71 492C191.127 492 198.761 484.336 198.761 474.883C198.761 474.853 198.761 474.823 198.761 474.793C199.079 471.633 200.261 464.878 204.641 460.481C209.78 455.322 219.052 453.951 221.306 453.688C221.307 453.687 221.309 453.687 221.311 453.687C221.428 453.677 221.545 453.665 221.662 453.653C221.686 453.65 221.711 453.647 221.735 453.645C221.852 453.631 221.969 453.617 222.085 453.602C222.102 453.599 222.12 453.597 222.138 453.594C222.189 453.587 222.241 453.58 222.292 453.572C222.306 453.57 222.321 453.568 222.335 453.566C222.388 453.558 222.441 453.55 222.494 453.542C222.511 453.539 222.528 453.536 222.544 453.534C222.591 453.526 222.637 453.518 222.683 453.51C222.709 453.506 222.735 453.501 222.761 453.497C222.804 453.489 222.847 453.482 222.89 453.474C222.908 453.471 222.927 453.467 222.945 453.464C223.06 453.442 223.174 453.42 223.288 453.396C223.316 453.39 223.343 453.384 223.371 453.379C223.411 453.37 223.45 453.362 223.49 453.353C223.512 453.348 223.535 453.343 223.557 453.338C223.96 453.247 224.358 453.142 224.75 453.023C224.79 453.011 224.83 452.999 224.87 452.987C224.894 452.979 224.918 452.971 224.942 452.964C224.983 452.951 225.024 452.938 225.065 452.924C225.099 452.913 225.133 452.902 225.168 452.89C225.195 452.881 225.223 452.872 225.251 452.863C225.281 452.853 225.311 452.842 225.342 452.832C225.38 452.818 225.419 452.805 225.458 452.791C225.48 452.784 225.502 452.776 225.524 452.768C225.564 452.753 225.604 452.739 225.645 452.724C225.677 452.713 225.708 452.701 225.74 452.689C225.767 452.679 225.793 452.669 225.819 452.659C225.856 452.646 225.892 452.632 225.928 452.617C225.962 452.605 225.995 452.592 226.029 452.579C226.053 452.569 226.078 452.559 226.103 452.549C226.123 452.541 226.142 452.534 226.161 452.526L226.255 452.487C226.273 452.48 226.291 452.473 226.309 452.465C226.331 452.456 226.353 452.447 226.376 452.438C226.42 452.419 226.465 452.4 226.51 452.381C226.522 452.375 226.535 452.37 226.547 452.365C226.594 452.344 226.641 452.324 226.688 452.303C226.71 452.293 226.732 452.283 226.754 452.273C226.786 452.259 226.818 452.245 226.85 452.23C226.892 452.211 226.934 452.191 226.976 452.172C226.995 452.163 227.013 452.155 227.031 452.146C227.066 452.13 227.1 452.114 227.134 452.098C227.426 451.958 227.713 451.811 227.995 451.655C228.093 451.601 228.19 451.547 228.286 451.491C228.383 451.435 228.48 451.378 228.575 451.321C228.592 451.311 228.609 451.301 228.626 451.29C228.658 451.271 228.69 451.251 228.722 451.231C228.746 451.216 228.771 451.201 228.795 451.186C228.831 451.164 228.867 451.141 228.903 451.118C228.922 451.106 228.942 451.094 228.961 451.081C228.993 451.061 229.024 451.041 229.055 451.02C229.083 451.003 229.11 450.985 229.137 450.967C229.166 450.948 229.196 450.929 229.225 450.909C229.251 450.892 229.277 450.874 229.303 450.856C229.331 450.838 229.359 450.819 229.387 450.8C229.4 450.79 229.414 450.781 229.428 450.772L229.513 450.713C229.525 450.705 229.536 450.697 229.548 450.689C229.577 450.668 229.607 450.647 229.636 450.627C229.662 450.608 229.687 450.59 229.713 450.571C229.746 450.548 229.778 450.524 229.811 450.5C229.829 450.487 229.847 450.474 229.865 450.461C229.901 450.435 229.936 450.409 229.972 450.382C229.992 450.367 230.013 450.352 230.033 450.336C230.061 450.315 230.089 450.294 230.117 450.273C230.144 450.252 230.171 450.232 230.198 450.211C230.218 450.195 230.238 450.179 230.259 450.163C230.343 450.098 230.426 450.032 230.508 449.965C230.527 449.95 230.546 449.934 230.565 449.919C230.724 449.789 230.88 449.657 231.034 449.522C231.111 449.454 231.188 449.385 231.264 449.316C231.292 449.29 231.32 449.265 231.348 449.239C231.366 449.222 231.385 449.205 231.403 449.188C231.431 449.161 231.459 449.135 231.487 449.109C231.511 449.087 231.534 449.065 231.557 449.043C231.581 449.02 231.605 448.996 231.63 448.973C231.65 448.953 231.671 448.933 231.692 448.913C231.724 448.882 231.755 448.85 231.787 448.819C231.801 448.805 231.815 448.791 231.829 448.777C231.858 448.748 231.888 448.719 231.917 448.689C231.937 448.668 231.958 448.647 231.979 448.626C232.005 448.599 232.032 448.572 232.058 448.544C232.076 448.525 232.095 448.506 232.113 448.487C232.138 448.461 232.163 448.434 232.188 448.408C232.21 448.385 232.231 448.362 232.252 448.34C232.278 448.313 232.303 448.285 232.328 448.258C232.347 448.237 232.367 448.216 232.386 448.195C232.412 448.166 232.438 448.137 232.464 448.109C232.481 448.089 232.499 448.07 232.516 448.051C232.543 448.021 232.569 447.991 232.596 447.96C232.612 447.943 232.627 447.925 232.642 447.907C232.672 447.874 232.701 447.84 232.73 447.807C232.742 447.793 232.754 447.779 232.766 447.765C232.796 447.729 232.826 447.694 232.855 447.659C232.87 447.641 232.885 447.623 232.899 447.606C232.968 447.523 233.036 447.44 233.103 447.357C233.123 447.332 233.142 447.308 233.162 447.283C233.225 447.203 233.288 447.122 233.35 447.041C233.468 446.887 233.583 446.73 233.696 446.572L233.715 446.544C233.736 446.516 233.756 446.487 233.776 446.458C233.789 446.439 233.803 446.42 233.816 446.402C233.835 446.374 233.854 446.346 233.873 446.318C233.895 446.286 233.916 446.254 233.938 446.222C233.951 446.203 233.964 446.184 233.977 446.165C234 446.13 234.023 446.096 234.046 446.061C234.063 446.034 234.081 446.008 234.098 445.981C234.116 445.953 234.134 445.925 234.153 445.897C234.174 445.864 234.194 445.831 234.215 445.798C234.228 445.778 234.24 445.759 234.253 445.739C234.275 445.704 234.296 445.669 234.318 445.634C234.334 445.607 234.351 445.581 234.367 445.554C234.383 445.527 234.4 445.5 234.416 445.473C234.434 445.444 234.451 445.414 234.469 445.385C234.486 445.356 234.503 445.327 234.52 445.298C234.542 445.261 234.564 445.223 234.585 445.185C234.594 445.17 234.602 445.156 234.611 445.141C234.638 445.093 234.665 445.046 234.692 444.997C234.698 444.986 234.704 444.975 234.711 444.964C234.731 444.927 234.751 444.891 234.77 444.855C234.787 444.824 234.804 444.793 234.821 444.762C234.832 444.741 234.844 444.72 234.855 444.699C234.873 444.664 234.892 444.629 234.91 444.594C234.931 444.554 234.952 444.514 234.972 444.474C234.982 444.456 234.991 444.438 235 444.42C235.122 444.181 235.238 443.939 235.349 443.693C235.363 443.662 235.377 443.631 235.39 443.6C235.405 443.567 235.42 443.534 235.435 443.501C235.449 443.468 235.463 443.435 235.477 443.402C235.489 443.376 235.5 443.349 235.511 443.322C235.524 443.292 235.537 443.261 235.55 443.231C235.565 443.194 235.58 443.158 235.594 443.122C235.604 443.098 235.614 443.073 235.624 443.049C235.635 443.022 235.646 442.995 235.656 442.968L235.679 442.912C235.687 442.892 235.694 442.871 235.702 442.851C235.715 442.82 235.727 442.788 235.739 442.757C235.753 442.72 235.766 442.683 235.78 442.646C235.791 442.618 235.802 442.589 235.812 442.56C235.822 442.533 235.832 442.506 235.842 442.479C235.857 442.436 235.873 442.393 235.888 442.349C235.894 442.332 235.9 442.316 235.906 442.299C235.923 442.251 235.939 442.203 235.956 442.154C235.963 442.134 235.969 442.114 235.976 442.094C235.989 442.055 236.002 442.017 236.014 441.978C236.024 441.947 236.034 441.917 236.044 441.886C236.055 441.853 236.065 441.819 236.076 441.785C236.086 441.754 236.096 441.723 236.105 441.691C236.116 441.657 236.126 441.622 236.137 441.587C236.146 441.557 236.155 441.527 236.164 441.497C236.174 441.464 236.183 441.431 236.193 441.398C236.203 441.362 236.213 441.326 236.223 441.291C236.23 441.266 236.237 441.241 236.244 441.217C236.255 441.176 236.266 441.135 236.277 441.094C236.285 441.067 236.292 441.039 236.299 441.011C236.309 440.974 236.319 440.936 236.328 440.898C236.336 440.869 236.343 440.839 236.35 440.81C236.384 440.676 236.416 440.541 236.447 440.405C236.469 440.303 236.491 440.201 236.512 440.098C236.534 439.994 236.554 439.889 236.574 439.784C236.58 439.748 236.587 439.712 236.593 439.677C236.596 439.663 236.598 439.649 236.6 439.635C236.61 439.58 236.62 439.525 236.629 439.471C236.634 439.441 236.638 439.411 236.643 439.382C236.648 439.35 236.653 439.319 236.658 439.287C236.664 439.246 236.67 439.206 236.676 439.165C236.681 439.133 236.686 439.102 236.69 439.07C236.696 439.032 236.701 438.995 236.706 438.957C236.71 438.928 236.713 438.9 236.717 438.871C236.722 438.829 236.728 438.788 236.733 438.746C236.737 438.717 236.74 438.687 236.744 438.657C236.748 438.621 236.752 438.584 236.756 438.547C236.76 438.515 236.763 438.482 236.767 438.45C236.771 438.408 236.775 438.367 236.779 438.326C236.782 438.3 236.784 438.274 236.786 438.249C236.791 438.204 236.795 438.16 236.798 438.115C236.8 438.092 236.802 438.069 236.804 438.046C236.808 438 236.811 437.955 236.815 437.91C236.818 437.871 236.82 437.831 236.823 437.791C236.825 437.767 236.826 437.742 236.828 437.717C236.831 437.669 236.833 437.621 236.836 437.572C236.837 437.546 236.839 437.519 236.84 437.493C236.842 437.465 236.843 437.436 236.844 437.408C236.846 437.361 236.848 437.314 236.85 437.266C236.85 437.255 236.851 437.245 236.851 437.234C236.853 437.175 236.855 437.115 236.856 437.056C236.86 436.916 236.861 436.776 236.861 436.636Z" fill="white"/>
<circle cx="221.022" cy="397.11" r="15.8388" fill="white"/>
<circle cx="180.498" cy="435.922" r="15.8388" fill="white"/>
</svg>
