<svg width="24" height="37" viewBox="0 0 24 37" fill="none" xmlns="http://www.w3.org/2000/svg">
<path d="M24 18.403C24 18.3563 23.9994 18.3098 23.9983 18.2634C23.9978 18.2437 23.9972 18.2239 23.9966 18.2042C23.9964 18.2006 23.9964 18.197 23.9963 18.1935C23.9957 18.1777 23.995 18.162 23.9943 18.1462C23.9939 18.1369 23.9934 18.1275 23.993 18.1182C23.9925 18.1093 23.9921 18.1005 23.9916 18.0917C23.9907 18.0756 23.9898 18.0596 23.9889 18.0435C23.9883 18.0353 23.9878 18.0271 23.9873 18.0189C23.9864 18.0058 23.9855 17.9926 23.9845 17.9794C23.9834 17.9644 23.9822 17.9494 23.981 17.9344C23.9804 17.9267 23.9797 17.919 23.9791 17.9113C23.9778 17.8965 23.9765 17.8817 23.9751 17.8669C23.9743 17.8584 23.9735 17.8498 23.9727 17.8413C23.9713 17.8275 23.97 17.8138 23.9685 17.8001C23.9674 17.7893 23.9662 17.7785 23.965 17.7677C23.9637 17.7555 23.9623 17.7432 23.9608 17.731C23.9597 17.7212 23.9585 17.7113 23.9573 17.7015C23.9556 17.6877 23.9538 17.6739 23.9521 17.66C23.9508 17.6505 23.9496 17.6409 23.9483 17.6314C23.9466 17.6189 23.9449 17.6064 23.9431 17.5939C23.9416 17.5834 23.9401 17.5729 23.9385 17.5623C23.9365 17.5488 23.9345 17.5352 23.9324 17.5217C23.9308 17.5112 23.9291 17.5008 23.9274 17.4903C23.9258 17.4804 23.9243 17.4706 23.9227 17.4607C23.9196 17.4425 23.9165 17.4243 23.9133 17.4061C23.9125 17.4015 23.9117 17.3969 23.9108 17.3923C23.9087 17.3804 23.9065 17.3686 23.9043 17.3567C23.8979 17.3217 23.8911 17.2869 23.884 17.2521C23.8771 17.218 23.8697 17.184 23.8621 17.1502C23.852 17.105 23.8413 17.0601 23.8301 17.0154C23.8277 17.0057 23.8254 16.9959 23.8229 16.9862C23.8197 16.9737 23.8163 16.9611 23.813 16.9485C23.8106 16.9394 23.8083 16.9302 23.8059 16.9211C23.8022 16.9075 23.7985 16.8939 23.7947 16.8803C23.7924 16.8721 23.7902 16.8639 23.7879 16.8557C23.7846 16.8438 23.7811 16.832 23.7777 16.8201C23.7745 16.8091 23.7714 16.7982 23.7681 16.7872C23.7652 16.7772 23.7622 16.7671 23.7591 16.7571C23.7557 16.7456 23.7522 16.734 23.7487 16.7225C23.7455 16.7121 23.7422 16.7017 23.739 16.6913C23.7355 16.6801 23.7319 16.6689 23.7283 16.6577C23.725 16.6476 23.7218 16.6375 23.7184 16.6273C23.7142 16.6144 23.71 16.6015 23.7057 16.5886C23.7035 16.582 23.7012 16.5753 23.699 16.5686C23.6935 16.5526 23.688 16.5366 23.6824 16.5207C23.6805 16.5151 23.6785 16.5095 23.6765 16.5039C23.6714 16.4895 23.6663 16.475 23.6611 16.4607C23.6594 16.456 23.6578 16.4514 23.6561 16.4467L23.6466 16.421C23.6446 16.4157 23.6426 16.4104 23.6407 16.4051C23.6361 16.3928 23.6315 16.3806 23.6268 16.3684C23.6229 16.3579 23.6188 16.3475 23.6148 16.3371C23.6109 16.3272 23.6071 16.3174 23.6032 16.3075C23.5984 16.2954 23.5935 16.2834 23.5887 16.2713C23.5854 16.2632 23.5822 16.2551 23.5789 16.247C23.574 16.2349 23.569 16.2229 23.564 16.2109C23.5598 16.2007 23.5555 16.1905 23.5513 16.1804C23.5475 16.1715 23.5437 16.1627 23.5399 16.1538C23.5352 16.1429 23.5305 16.1319 23.5258 16.121C23.5209 16.11 23.516 16.099 23.5111 16.088C23.5065 16.0777 23.502 16.0674 23.4974 16.0572C23.4605 15.9755 23.4218 15.8949 23.3813 15.8154C23.3783 15.8095 23.3752 15.8036 23.3722 15.7977C23.3653 15.7844 23.3584 15.771 23.3515 15.7577C23.3454 15.7461 23.3392 15.7345 23.3331 15.7229C23.3293 15.7159 23.3255 15.7088 23.3217 15.7017C23.3162 15.6914 23.3106 15.6812 23.305 15.671C23.2984 15.6589 23.2918 15.6469 23.2851 15.6349C23.283 15.6311 23.281 15.6274 23.2789 15.6236C23.2699 15.6076 23.2609 15.5917 23.2518 15.5758C23.2491 15.571 23.2463 15.5661 23.2435 15.5613C23.2363 15.5487 23.229 15.5361 23.2217 15.5236C23.2161 15.514 23.2104 15.5045 23.2047 15.4949C23.1989 15.4851 23.193 15.4753 23.1871 15.4654C23.1817 15.4565 23.1763 15.4475 23.1708 15.4386C23.1655 15.4298 23.16 15.421 23.1546 15.4122C23.1474 15.4005 23.1402 15.3888 23.1329 15.3772C23.1288 15.3706 23.1246 15.364 23.1205 15.3575C23.1135 15.3465 23.1066 15.3356 23.0996 15.3247C23.0936 15.3154 23.0875 15.306 23.0814 15.2967C23.0757 15.2878 23.0699 15.2789 23.0641 15.2701C23.0565 15.2585 23.0488 15.2471 23.0411 15.2356C23.0369 15.2292 23.0326 15.2228 23.0283 15.2164C23.0211 15.2058 23.0139 15.1952 23.0066 15.1846C23.0003 15.1753 22.994 15.1661 22.9876 15.1569C22.9833 15.1507 22.9789 15.1445 22.9746 15.1383C22.9666 15.1268 22.9586 15.1154 22.9505 15.104C22.9122 15.0501 22.873 14.9968 22.8329 14.9443C22.8123 14.9173 22.7913 14.8905 22.7702 14.8638C22.7637 14.8557 22.7573 14.8475 22.7508 14.8394C22.7285 14.8116 22.7059 14.784 22.6831 14.7566C22.6782 14.7507 22.6733 14.7448 22.6684 14.739C22.6585 14.7272 22.6486 14.7155 22.6387 14.7038C22.6347 14.6991 22.6307 14.6944 22.6267 14.6898C22.6171 14.6786 22.6074 14.6675 22.5977 14.6564C22.5925 14.6505 22.5874 14.6446 22.5822 14.6387C22.5734 14.6287 22.5645 14.6187 22.5556 14.6087C22.5498 14.6023 22.5441 14.5958 22.5383 14.5894C22.5297 14.5798 22.5211 14.5703 22.5125 14.5608C22.506 14.5538 22.4996 14.5467 22.4931 14.5397C22.4848 14.5307 22.4764 14.5217 22.468 14.5127C22.4609 14.5051 22.4538 14.4975 22.4466 14.49C22.4383 14.4812 22.43 14.4724 22.4217 14.4636C22.4156 14.4573 22.4095 14.451 22.4034 14.4447C22.3946 14.4356 22.3859 14.4265 22.377 14.4174C22.3702 14.4104 22.3633 14.4035 22.3564 14.3965C22.3467 14.3867 22.3371 14.3769 22.3273 14.3672C22.3227 14.3626 22.318 14.3579 22.3133 14.3533C22.3028 14.3429 22.2923 14.3325 22.2817 14.3222C22.2749 14.3155 22.2679 14.3089 22.261 14.3022C22.2529 14.2944 22.2448 14.2865 22.2367 14.2788C22.2291 14.2715 22.2214 14.2642 22.2137 14.257C22.2044 14.2482 22.1951 14.2395 22.1858 14.2308C22.1797 14.2251 22.1735 14.2194 22.1674 14.2138C22.1581 14.2052 22.1489 14.1967 22.1396 14.1882C22.1143 14.1651 22.0886 14.1424 22.0629 14.1197C22.0117 14.0748 21.9598 14.0308 21.9071 13.9877C21.9008 13.9826 21.8945 13.9774 21.8882 13.9723C21.8608 13.9501 21.8332 13.9282 21.8054 13.9065C21.7986 13.9012 21.7918 13.8959 21.785 13.8906C21.7761 13.8837 21.7671 13.877 21.7582 13.8701C21.7489 13.8631 21.7396 13.856 21.7303 13.849C21.7236 13.8439 21.7168 13.8389 21.71 13.8338C21.6982 13.825 21.6863 13.8162 21.6744 13.8074C21.6685 13.8031 21.6625 13.7988 21.6565 13.7944C21.6457 13.7865 21.6349 13.7786 21.624 13.7708C21.6154 13.7647 21.6068 13.7586 21.5983 13.7525C21.5885 13.7456 21.5788 13.7387 21.569 13.7319C21.5605 13.7259 21.5519 13.72 21.5433 13.714C21.534 13.7076 21.5248 13.7013 21.5155 13.6949C21.5063 13.6886 21.497 13.6823 21.4877 13.6761C21.4791 13.6703 21.4704 13.6644 21.4617 13.6586C21.452 13.6521 21.4422 13.6457 21.4324 13.6392C21.4234 13.6333 21.4144 13.6275 21.4053 13.6216C21.3949 13.6148 21.3845 13.6081 21.374 13.6014C21.3676 13.5972 21.3611 13.5932 21.3546 13.5891C21.3427 13.5815 21.3307 13.5739 21.3187 13.5664C21.3107 13.5614 21.3026 13.5564 21.2946 13.5515C21.2839 13.5449 21.2732 13.5384 21.2625 13.5319C21.2569 13.5285 21.2513 13.5251 21.2457 13.5217C21.2139 13.5026 21.1819 13.4837 21.1497 13.4651C21.1177 13.4466 21.0854 13.4285 21.0529 13.4106C20.9591 13.359 20.8636 13.3099 20.7666 13.2635C20.7552 13.2581 20.7439 13.2526 20.7325 13.2473C20.7265 13.2444 20.7204 13.2417 20.7143 13.2389C20.7003 13.2323 20.6862 13.2258 20.6721 13.2194C20.6616 13.2146 20.651 13.2098 20.6404 13.2051C20.6331 13.2018 20.6257 13.1985 20.6184 13.1953C20.6028 13.1884 20.5872 13.1816 20.5715 13.1748C20.5674 13.173 20.5633 13.1712 20.5592 13.1694C20.5444 13.1631 20.5295 13.1568 20.5146 13.1505C20.5072 13.1474 20.4999 13.1444 20.4925 13.1413C20.4813 13.1367 20.4702 13.1321 20.459 13.1276C20.4473 13.1229 20.4357 13.1181 20.424 13.1135C20.4158 13.1102 20.4075 13.1069 20.3992 13.1037C20.3881 13.0993 20.377 13.095 20.3659 13.0907C20.3538 13.0861 20.3417 13.0814 20.3296 13.0768C20.3209 13.0735 20.3121 13.0703 20.3034 13.067C20.2928 13.0631 20.2822 13.0591 20.2716 13.0552C20.2582 13.0504 20.2448 13.0455 20.2314 13.0408C20.2241 13.0382 20.2168 13.0355 20.2095 13.0329C20.1966 13.0284 20.1838 13.024 20.1709 13.0195C20.1608 13.0161 20.1508 13.0126 20.1407 13.0092C20.1315 13.0061 20.1222 13.0031 20.113 13C20.1017 12.9962 20.0904 12.9924 20.079 12.9887C20.0654 12.9843 20.0518 12.98 20.0382 12.9757C20.0301 12.9731 20.0221 12.9705 20.014 12.968C20.0008 12.9639 19.9876 12.96 19.9744 12.956C19.844 12.9165 19.7118 12.8815 19.5777 12.8513C19.5703 12.8496 19.5628 12.8479 19.5554 12.8462C19.5422 12.8433 19.529 12.8406 19.5158 12.8377C19.5067 12.8358 19.4975 12.8338 19.4883 12.8319C19.4504 12.824 19.4124 12.8166 19.3742 12.8095C19.3681 12.8083 19.362 12.8071 19.3558 12.806C19.3416 12.8034 19.3274 12.8009 19.3132 12.7984C19.3045 12.7969 19.2959 12.7954 19.2873 12.7939C19.2719 12.7913 19.2565 12.7887 19.241 12.7862C19.2355 12.7853 19.2299 12.7844 19.2244 12.7836C19.2068 12.7808 19.1892 12.7781 19.1716 12.7754C19.1668 12.7747 19.162 12.774 19.1572 12.7733C19.1401 12.7708 19.123 12.7684 19.1059 12.766C19.1 12.7652 19.0941 12.7644 19.0882 12.7636C19.0497 12.7585 19.011 12.7537 18.9721 12.7493C18.964 12.7484 18.9558 12.7475 18.9476 12.7466C18.9089 12.7424 18.87 12.7386 18.831 12.7352C18.8305 12.7352 18.8299 12.735 18.8294 12.735C18.0803 12.6474 14.9983 12.1916 13.29 10.4767C11.8342 9.0153 11.4413 6.77001 11.3355 5.71958C11.3355 5.7096 11.3356 5.69961 11.3356 5.68962C11.3356 2.54733 8.79811 -7.06825e-06 5.66792 -6.95271e-06C2.53774 -6.83716e-06 0.000223803 2.54733 0.000223919 5.68962C0.000224035 8.83191 2.53774 11.3792 5.66792 11.3792C5.6942 11.3792 5.72044 11.379 5.74663 11.3786L5.7461 11.3792C5.7461 11.3792 8.28679 11.3792 10.2412 13.3412C10.6415 13.7431 10.9813 14.2149 11.2692 14.7159C12.5618 16.9655 12.5618 19.8405 11.2692 22.0901C10.9813 22.591 10.6415 23.0629 10.2412 23.4648C8.28679 25.4267 5.7461 25.4267 5.7461 25.4267L5.74663 25.4273C5.72044 25.427 5.6942 25.4267 5.66792 25.4267C2.53774 25.4267 0.000224741 27.9741 0.000224857 31.1163C0.000224973 34.2586 2.53774 36.806 5.66792 36.806C8.79811 36.806 11.3356 34.2586 11.3356 31.1163C11.3356 31.1064 11.3355 31.0964 11.3355 31.0864C11.4413 30.036 11.8342 27.7907 13.29 26.3292C14.9983 24.6143 18.0803 24.1586 18.8294 24.071C18.8299 24.0709 18.8305 24.0709 18.831 24.0708C18.87 24.0674 18.9089 24.0636 18.9476 24.0594C18.9558 24.0585 18.964 24.0577 18.9721 24.0567C19.011 24.0524 19.0497 24.0476 19.0882 24.0424C19.0941 24.0416 19.1 24.0408 19.1059 24.04C19.123 24.0377 19.1401 24.0352 19.1572 24.0328C19.162 24.032 19.1668 24.0313 19.1716 24.0306C19.1892 24.028 19.2068 24.0253 19.2244 24.0225C19.2299 24.0216 19.2355 24.0207 19.241 24.0198C19.2565 24.0173 19.2719 24.0148 19.2873 24.0121C19.2959 24.0107 19.3045 24.0091 19.3132 24.0076C19.3274 24.0051 19.3416 24.0026 19.3558 24C19.362 23.9989 19.3681 23.9977 19.3742 23.9966C19.4124 23.9895 19.4504 23.982 19.4883 23.9741C19.4975 23.9722 19.5067 23.9703 19.5158 23.9683C19.529 23.9655 19.5422 23.9627 19.5554 23.9598C19.5628 23.9581 19.5703 23.9564 19.5777 23.9547C19.7118 23.9246 19.844 23.8896 19.9744 23.85C19.9876 23.846 20.0008 23.8421 20.014 23.838C20.0221 23.8355 20.0301 23.8329 20.0382 23.8303C20.0518 23.826 20.0654 23.8217 20.079 23.8173C20.0904 23.8136 20.1017 23.8098 20.113 23.8061C20.1222 23.803 20.1315 23.8 20.1407 23.7969C20.1508 23.7935 20.1608 23.79 20.1709 23.7865C20.1838 23.7821 20.1966 23.7776 20.2095 23.7731C20.2168 23.7705 20.2241 23.7679 20.2314 23.7653C20.2448 23.7605 20.2582 23.7557 20.2716 23.7508C20.2822 23.7469 20.2928 23.7429 20.3034 23.739C20.3121 23.7357 20.3209 23.7326 20.3296 23.7293C20.3417 23.7247 20.3538 23.72 20.3659 23.7153C20.377 23.711 20.3881 23.7067 20.3992 23.7024C20.4075 23.6991 20.4158 23.6958 20.424 23.6926C20.4305 23.69 20.4369 23.6874 20.4433 23.6848L20.4746 23.6721C20.4806 23.6696 20.4866 23.6672 20.4925 23.6647C20.4999 23.6617 20.5072 23.6586 20.5146 23.6555C20.5295 23.6493 20.5444 23.643 20.5592 23.6366C20.5633 23.6348 20.5674 23.633 20.5715 23.6312C20.5872 23.6245 20.6028 23.6177 20.6184 23.6108C20.6257 23.6075 20.6331 23.6043 20.6404 23.601C20.651 23.5962 20.6616 23.5915 20.6721 23.5866C20.6862 23.5802 20.7003 23.5737 20.7143 23.5672C20.7204 23.5643 20.7265 23.5616 20.7325 23.5587C20.7439 23.5534 20.7552 23.5479 20.7666 23.5425C20.8636 23.4961 20.9591 23.4471 21.0529 23.3954C21.0854 23.3776 21.1177 23.3594 21.1497 23.3409C21.1819 23.3224 21.2139 23.3035 21.2457 23.2843C21.2513 23.2809 21.2569 23.2776 21.2625 23.2742C21.2732 23.2677 21.2839 23.2611 21.2946 23.2546C21.3026 23.2496 21.3107 23.2446 21.3187 23.2396C21.3307 23.2321 21.3427 23.2245 21.3546 23.2169C21.3611 23.2128 21.3676 23.2088 21.374 23.2047C21.3845 23.198 21.3949 23.1912 21.4053 23.1844C21.4144 23.1786 21.4234 23.1727 21.4324 23.1668C21.4422 23.1604 21.452 23.1539 21.4617 23.1474C21.4704 23.1416 21.4791 23.1358 21.4877 23.13C21.497 23.1237 21.5063 23.1174 21.5155 23.1111C21.52 23.108 21.5246 23.1049 21.5291 23.1018L21.5575 23.0822C21.5613 23.0795 21.5652 23.0768 21.569 23.0742C21.5788 23.0673 21.5885 23.0604 21.5983 23.0535C21.6068 23.0475 21.6154 23.0414 21.624 23.0352C21.6349 23.0274 21.6457 23.0195 21.6565 23.0116C21.6625 23.0073 21.6685 23.003 21.6744 22.9986C21.6863 22.9899 21.6982 22.9811 21.71 22.9722C21.7168 22.9672 21.7236 22.9621 21.7303 22.9571C21.7396 22.95 21.7489 22.943 21.7582 22.9359C21.7671 22.9291 21.7761 22.9223 21.785 22.9154C21.7918 22.9102 21.7986 22.9049 21.8054 22.8996C21.8332 22.8779 21.8608 22.8559 21.8882 22.8337C21.8945 22.8286 21.9008 22.8235 21.9071 22.8183C21.9598 22.7753 22.0117 22.7312 22.0629 22.6863C22.0886 22.6637 22.1143 22.6409 22.1396 22.6179C22.1489 22.6094 22.1581 22.6008 22.1674 22.5923C22.1735 22.5866 22.1797 22.5809 22.1858 22.5752C22.1951 22.5665 22.2044 22.5578 22.2137 22.549C22.2214 22.5418 22.2291 22.5346 22.2367 22.5273C22.2448 22.5195 22.2529 22.5116 22.261 22.5038C22.2679 22.4971 22.2749 22.4905 22.2817 22.4838C22.2923 22.4735 22.3028 22.4632 22.3133 22.4528C22.318 22.4481 22.3227 22.4435 22.3273 22.4388C22.3371 22.4291 22.3467 22.4193 22.3564 22.4096C22.3633 22.4026 22.3702 22.3956 22.377 22.3886C22.3859 22.3796 22.3946 22.3705 22.4034 22.3613C22.4095 22.355 22.4156 22.3488 22.4217 22.3424C22.43 22.3337 22.4383 22.3249 22.4466 22.3161C22.4538 22.3085 22.4609 22.301 22.468 22.2934C22.4764 22.2844 22.4848 22.2754 22.4931 22.2663C22.4996 22.2593 22.506 22.2523 22.5125 22.2452C22.5211 22.2357 22.5297 22.2261 22.5383 22.2166C22.5441 22.2102 22.5499 22.2038 22.5556 22.1973C22.5645 22.1874 22.5734 22.1773 22.5822 22.1673C22.5874 22.1614 22.5925 22.1556 22.5977 22.1497C22.6074 22.1386 22.6171 22.1274 22.6267 22.1163C22.6307 22.1116 22.6347 22.1069 22.6387 22.1022C22.6486 22.0905 22.6585 22.0788 22.6684 22.0671C22.6733 22.0612 22.6782 22.0553 22.6831 22.0494C22.7059 22.022 22.7285 21.9945 22.7508 21.9667C22.7573 21.9585 22.7637 21.9504 22.7702 21.9422C22.7913 21.9155 22.8123 21.8887 22.8329 21.8617C22.8721 21.8104 22.9104 21.7584 22.9478 21.7058L22.9543 21.6967C22.9611 21.6871 22.9678 21.6774 22.9746 21.6678C22.9789 21.6616 22.9833 21.6554 22.9876 21.6491C22.994 21.64 23.0003 21.6307 23.0066 21.6215C23.0139 21.6109 23.0211 21.6003 23.0283 21.5896C23.0326 21.5832 23.0369 21.5768 23.0411 21.5704C23.0488 21.559 23.0565 21.5475 23.0641 21.536C23.0699 21.5271 23.0757 21.5182 23.0814 21.5094C23.0875 21.5 23.0936 21.4907 23.0996 21.4813C23.1066 21.4704 23.1135 21.4595 23.1205 21.4486C23.1246 21.442 23.1288 21.4354 23.1329 21.4288C23.1402 21.4172 23.1474 21.4055 23.1546 21.3939C23.16 21.3851 23.1655 21.3763 23.1708 21.3674C23.1763 21.3585 23.1817 21.3496 23.1871 21.3406C23.193 21.3308 23.1989 21.321 23.2047 21.3111C23.2104 21.3016 23.2161 21.292 23.2217 21.2824C23.229 21.2699 23.2363 21.2573 23.2435 21.2447C23.2463 21.2399 23.2491 21.2351 23.2518 21.2302C23.2609 21.2143 23.2699 21.1984 23.2789 21.1824C23.281 21.1787 23.283 21.1749 23.2851 21.1712C23.2918 21.1592 23.2984 21.1471 23.305 21.1351C23.3106 21.1248 23.3162 21.1146 23.3217 21.1043C23.3255 21.0973 23.3293 21.0902 23.3331 21.0831C23.3392 21.0715 23.3454 21.06 23.3515 21.0484C23.3584 21.0351 23.3653 21.0217 23.3722 21.0083C23.3752 21.0024 23.3783 20.9965 23.3813 20.9906C23.4218 20.9111 23.4605 20.8305 23.4974 20.7489C23.502 20.7386 23.5065 20.7283 23.5111 20.718C23.516 20.707 23.5209 20.6961 23.5258 20.685C23.5305 20.6741 23.5352 20.6632 23.5399 20.6522C23.5437 20.6434 23.5475 20.6345 23.5513 20.6256C23.5555 20.6155 23.5598 20.6053 23.564 20.5951C23.569 20.5831 23.574 20.5711 23.5789 20.559C23.5822 20.551 23.5854 20.5428 23.5887 20.5347C23.5923 20.5258 23.5959 20.5168 23.5995 20.5078L23.6068 20.4892C23.6095 20.4825 23.6121 20.4757 23.6148 20.4689C23.6188 20.4585 23.6229 20.4481 23.6268 20.4377C23.6315 20.4254 23.6361 20.4132 23.6407 20.4009C23.6442 20.3914 23.6478 20.3818 23.6513 20.3722C23.6546 20.3633 23.6579 20.3543 23.6611 20.3454C23.6663 20.331 23.6714 20.3166 23.6765 20.3022C23.6785 20.2966 23.6805 20.291 23.6824 20.2854C23.688 20.2694 23.6935 20.2534 23.699 20.2374C23.7012 20.2307 23.7035 20.2241 23.7057 20.2174C23.71 20.2045 23.7142 20.1916 23.7184 20.1787C23.7218 20.1686 23.725 20.1585 23.7283 20.1483C23.7319 20.1371 23.7355 20.1259 23.739 20.1147C23.7422 20.1043 23.7455 20.0939 23.7487 20.0835C23.7522 20.072 23.7557 20.0605 23.7591 20.0489C23.7622 20.0389 23.7652 20.0289 23.7681 20.0188C23.7714 20.0079 23.7745 19.9969 23.7777 19.9859C23.7811 19.9741 23.7846 19.9622 23.7879 19.9503C23.7902 19.9421 23.7924 19.9339 23.7947 19.9257C23.7985 19.9121 23.8022 19.8986 23.8059 19.8849C23.8083 19.8758 23.8106 19.8666 23.813 19.8575C23.8163 19.8449 23.8197 19.8323 23.8229 19.8197C23.8254 19.81 23.8277 19.8003 23.8301 19.7906C23.8413 19.7459 23.852 19.701 23.8621 19.6559C23.8697 19.622 23.8771 19.588 23.884 19.5539C23.8911 19.5192 23.8979 19.4843 23.9043 19.4493C23.9065 19.4375 23.9087 19.4256 23.9108 19.4138C23.9117 19.4091 23.9125 19.4045 23.9133 19.3999C23.9165 19.3817 23.9196 19.3635 23.9227 19.3453C23.9243 19.3355 23.9258 19.3256 23.9274 19.3157C23.9291 19.3053 23.9308 19.2948 23.9324 19.2843C23.9345 19.2708 23.9365 19.2573 23.9385 19.2437C23.9401 19.2332 23.9416 19.2227 23.9431 19.2121C23.9449 19.1996 23.9466 19.1872 23.9483 19.1747C23.9496 19.1651 23.9508 19.1555 23.9521 19.146C23.9538 19.1322 23.9556 19.1184 23.9573 19.1045C23.9585 19.0947 23.9597 19.0849 23.9608 19.075C23.9623 19.0628 23.9637 19.0506 23.965 19.0383C23.9662 19.0275 23.9674 19.0168 23.9685 19.006C23.97 18.9922 23.9713 18.9785 23.9727 18.9647C23.9735 18.9562 23.9743 18.9477 23.9751 18.9391C23.9765 18.9244 23.9778 18.9096 23.9791 18.8948C23.9797 18.8871 23.9804 18.8793 23.981 18.8716C23.9822 18.8566 23.9834 18.8417 23.9845 18.8266C23.9855 18.8135 23.9864 18.8003 23.9873 18.7871C23.9878 18.7789 23.9883 18.7707 23.9889 18.7625C23.9898 18.7465 23.9907 18.7304 23.9916 18.7144C23.9921 18.7055 23.9925 18.6967 23.993 18.6878C23.9934 18.6785 23.9939 18.6692 23.9943 18.6598C23.995 18.6441 23.9957 18.6283 23.9963 18.6126C23.9964 18.609 23.9964 18.6054 23.9966 18.6019C23.9972 18.5821 23.9978 18.5624 23.9983 18.5426C23.9994 18.4962 24 18.4497 24 18.403Z" fill="#007AFF"/>
</svg>
