<svg width="32" height="50" viewBox="0 0 32 50" fill="none" xmlns="http://www.w3.org/2000/svg">
<path d="M32 24.5373C32 24.4751 31.9992 24.4131 31.9978 24.3512C31.9971 24.3249 31.9963 24.2985 31.9954 24.2722C31.9953 24.2675 31.9952 24.2627 31.995 24.2579C31.9943 24.2369 31.9933 24.216 31.9924 24.195C31.9918 24.1825 31.9912 24.1701 31.9906 24.1576C31.9901 24.1458 31.9894 24.134 31.9888 24.1222C31.9877 24.1008 31.9865 24.0794 31.9851 24.0581C31.9845 24.0471 31.9837 24.0362 31.983 24.0253C31.9818 24.0077 31.9806 23.9901 31.9793 23.9725C31.9779 23.9525 31.9763 23.9325 31.9747 23.9126C31.9738 23.9023 31.973 23.892 31.9721 23.8817C31.9704 23.862 31.9686 23.8422 31.9668 23.8225C31.9658 23.8111 31.9647 23.7998 31.9636 23.7884C31.9618 23.7701 31.96 23.7517 31.9581 23.7334C31.9566 23.719 31.955 23.7047 31.9534 23.6903C31.9516 23.674 31.9497 23.6577 31.9478 23.6414C31.9462 23.6282 31.9447 23.6151 31.9431 23.602C31.9408 23.5836 31.9385 23.5651 31.9361 23.5467C31.9344 23.534 31.9328 23.5212 31.9311 23.5085C31.9288 23.4918 31.9265 23.4752 31.9242 23.4586C31.9222 23.4445 31.9201 23.4305 31.9181 23.4165C31.9154 23.3984 31.9127 23.3803 31.9099 23.3623C31.9077 23.3483 31.9054 23.3344 31.9032 23.3204C31.9011 23.3072 31.8991 23.2941 31.8969 23.281C31.8929 23.2567 31.8886 23.2324 31.8844 23.2082C31.8833 23.202 31.8822 23.1959 31.8811 23.1897C31.8783 23.1739 31.8754 23.1581 31.8725 23.1423C31.8638 23.0957 31.8549 23.0491 31.8454 23.0028C31.8361 22.9573 31.8263 22.9121 31.8162 22.8669C31.8027 22.8067 31.7884 22.7468 31.7735 22.6872C31.7703 22.6742 31.7671 22.6613 31.7638 22.6483C31.7596 22.6315 31.7551 22.6148 31.7507 22.5981C31.7475 22.5859 31.7444 22.5736 31.7411 22.5615C31.7363 22.5433 31.7313 22.5252 31.7263 22.5071C31.7233 22.4962 31.7203 22.4852 31.7172 22.4743C31.7128 22.4584 31.7081 22.4426 31.7036 22.4268C31.6994 22.4122 31.6952 22.3975 31.6909 22.383C31.6869 22.3696 31.6829 22.3562 31.6788 22.3428C31.6742 22.3274 31.6696 22.312 31.6649 22.2967C31.6606 22.2828 31.6563 22.269 31.652 22.2551C31.6473 22.2402 31.6425 22.2252 31.6377 22.2103C31.6334 22.1968 31.629 22.1833 31.6246 22.1698C31.619 22.1526 31.6133 22.1354 31.6076 22.1182C31.6046 22.1093 31.6016 22.1004 31.5986 22.0915C31.5914 22.0702 31.584 22.0488 31.5766 22.0276C31.5739 22.0201 31.5713 22.0126 31.5687 22.0052C31.5619 21.9859 31.5551 21.9667 31.5482 21.9476C31.5459 21.9414 31.5437 21.9351 31.5414 21.929L31.5288 21.8946C31.5262 21.8876 31.5235 21.8805 31.5209 21.8735C31.5148 21.8571 31.5087 21.8408 31.5024 21.8245C31.4971 21.8106 31.4918 21.7967 31.4864 21.7828C31.4812 21.7697 31.4761 21.7565 31.4709 21.7434C31.4645 21.7272 31.458 21.7111 31.4516 21.6951C31.4472 21.6843 31.4429 21.6734 31.4385 21.6627C31.432 21.6466 31.4253 21.6305 31.4187 21.6145C31.413 21.601 31.4074 21.5874 31.4017 21.5739C31.3967 21.562 31.3916 21.5502 31.3865 21.5384C31.3802 21.5238 31.374 21.5092 31.3677 21.4947C31.3613 21.48 31.3546 21.4654 31.3481 21.4507C31.342 21.437 31.336 21.4232 31.3298 21.4095C31.2807 21.3007 31.2291 21.1933 31.1751 21.0873C31.1711 21.0794 31.1669 21.0715 31.1629 21.0637C31.1537 21.0458 31.1446 21.028 31.1353 21.0102C31.1272 20.9947 31.119 20.9793 31.1108 20.9639C31.1057 20.9545 31.1007 20.945 31.0956 20.9356C31.0882 20.9219 31.0808 20.9083 31.0733 20.8946C31.0645 20.8786 31.0557 20.8625 31.0468 20.8465C31.044 20.8415 31.0413 20.8365 31.0385 20.8315C31.0266 20.8102 31.0146 20.7889 31.0025 20.7677C30.9988 20.7613 30.9951 20.7549 30.9914 20.7484C30.9817 20.7316 30.972 20.7148 30.9622 20.6981C30.9548 20.6854 30.9472 20.6727 30.9396 20.6599C30.9318 20.6468 30.924 20.6337 30.9161 20.6206C30.9089 20.6086 30.9017 20.5967 30.8945 20.5848C30.8873 20.573 30.88 20.5613 30.8728 20.5496C30.8632 20.534 30.8536 20.5185 30.8439 20.503C30.8383 20.4942 30.8328 20.4854 30.8273 20.4766C30.8181 20.462 30.8088 20.4475 30.7995 20.433C30.7915 20.4205 30.7834 20.408 30.7753 20.3956C30.7676 20.3837 30.7599 20.3719 30.7521 20.3601C30.742 20.3447 30.7317 20.3294 30.7215 20.3141C30.7158 20.3056 30.7101 20.2971 30.7044 20.2886C30.6948 20.2744 30.6852 20.2602 30.6755 20.2461C30.6671 20.2338 30.6587 20.2215 30.6502 20.2092C30.6444 20.2009 30.6385 20.1926 30.6327 20.1844C30.6221 20.1691 30.6115 20.1538 30.6007 20.1387C30.5496 20.0668 30.4974 19.9957 30.4439 19.9257C30.4164 19.8897 30.3884 19.854 30.3603 19.8184C30.3516 19.8076 30.3431 19.7967 30.3344 19.7858C30.3047 19.7487 30.2745 19.712 30.2441 19.6755C30.2376 19.6677 30.2311 19.6598 30.2246 19.652C30.2114 19.6363 30.1982 19.6207 30.1849 19.6051C30.1795 19.5988 30.1742 19.5926 30.1689 19.5864C30.1561 19.5715 30.1431 19.5566 30.1302 19.5418C30.1234 19.534 30.1165 19.5261 30.1096 19.5183C30.0979 19.5049 30.086 19.4916 30.0741 19.4783C30.0665 19.4697 30.0588 19.4611 30.0511 19.4525C30.0396 19.4398 30.0282 19.4271 30.0166 19.4144C30.008 19.405 29.9995 19.3956 29.9909 19.3863C29.9797 19.3742 29.9686 19.3622 29.9574 19.3502C29.9479 19.3401 29.9384 19.3301 29.9289 19.32C29.9178 19.3082 29.9067 19.2965 29.8956 19.2848C29.8875 19.2764 29.8794 19.268 29.8713 19.2596C29.8595 19.2474 29.8478 19.2353 29.836 19.2232C29.8269 19.2139 29.8177 19.2046 29.8085 19.1953C29.7957 19.1823 29.7828 19.1692 29.7698 19.1563C29.7635 19.1501 29.7573 19.1439 29.751 19.1377C29.7371 19.1238 29.7231 19.11 29.709 19.0963C29.6998 19.0874 29.6905 19.0785 29.6813 19.0696C29.6705 19.0592 29.6598 19.0487 29.6489 19.0384C29.6388 19.0287 29.6285 19.019 29.6183 19.0093C29.6059 18.9977 29.5935 18.986 29.581 18.9744C29.5729 18.9668 29.5647 18.9593 29.5565 18.9517C29.5442 18.9403 29.5319 18.9289 29.5195 18.9176C29.4857 18.8868 29.4515 18.8565 29.4172 18.8263C29.349 18.7664 29.2797 18.7077 29.2094 18.6503C29.201 18.6434 29.1927 18.6365 29.1843 18.6297C29.1477 18.6001 29.1109 18.5709 29.0738 18.542C29.0648 18.5349 29.0557 18.5278 29.0466 18.5208C29.0348 18.5116 29.0228 18.5026 29.0109 18.4935C28.9986 18.4841 28.9862 18.4747 28.9738 18.4653C28.9648 18.4585 28.9557 18.4518 28.9467 18.4451C28.9309 18.4333 28.9151 18.4216 28.8993 18.4099C28.8913 18.4041 28.8833 18.3984 28.8753 18.3926C28.8609 18.382 28.8465 18.3715 28.832 18.3611C28.8206 18.3529 28.8091 18.3448 28.7977 18.3367C28.7847 18.3275 28.7717 18.3183 28.7587 18.3092C28.7473 18.3012 28.7358 18.2933 28.7244 18.2854C28.7121 18.2768 28.6997 18.2684 28.6873 18.2599C28.675 18.2515 28.6627 18.2431 28.6503 18.2348C28.6387 18.227 28.6272 18.2192 28.6157 18.2115C28.6026 18.2028 28.5896 18.1942 28.5765 18.1856C28.5645 18.1778 28.5525 18.1699 28.5404 18.1621C28.5265 18.1531 28.5127 18.1441 28.4987 18.1352C28.4901 18.1297 28.4815 18.1243 28.4729 18.1188C28.4569 18.1087 28.4409 18.0986 28.4249 18.0886C28.4142 18.0819 28.4035 18.0753 28.3927 18.0686C28.3785 18.0599 28.3643 18.0511 28.35 18.0425C28.3425 18.038 28.3351 18.0335 28.3276 18.029C28.2852 18.0034 28.2426 17.9782 28.1996 17.9535C28.1569 17.9288 28.1139 17.9046 28.0706 17.8808C27.9454 17.8119 27.8181 17.7466 27.6888 17.6847C27.6736 17.6775 27.6585 17.6702 27.6434 17.6631C27.6353 17.6593 27.6271 17.6556 27.619 17.6518C27.6003 17.6431 27.5816 17.6344 27.5628 17.6259C27.5488 17.6194 27.5346 17.6131 27.5205 17.6068C27.5107 17.6024 27.501 17.598 27.4912 17.5937C27.4704 17.5845 27.4496 17.5754 27.4287 17.5664C27.4232 17.564 27.4178 17.5616 27.4123 17.5592C27.3925 17.5507 27.3726 17.5423 27.3528 17.534C27.343 17.5299 27.3331 17.5258 27.3233 17.5217C27.3085 17.5156 27.2936 17.5095 27.2786 17.5035C27.2631 17.4971 27.2476 17.4909 27.232 17.4846C27.221 17.4803 27.21 17.4759 27.1989 17.4716C27.1842 17.4658 27.1694 17.46 27.1546 17.4543C27.1384 17.4481 27.1223 17.4418 27.1061 17.4357C27.0945 17.4313 27.0828 17.4271 27.0712 17.4227C27.0571 17.4175 27.0429 17.4122 27.0288 17.407C27.0109 17.4005 26.9931 17.3941 26.9752 17.3877C26.9655 17.3842 26.9557 17.3807 26.946 17.3773C26.9289 17.3712 26.9117 17.3653 26.8945 17.3594C26.8811 17.3548 26.8677 17.3501 26.8543 17.3456C26.842 17.3414 26.8297 17.3374 26.8173 17.3333C26.8022 17.3283 26.7872 17.3232 26.772 17.3183C26.7539 17.3124 26.7358 17.3067 26.7176 17.3009C26.7068 17.2975 26.6961 17.2941 26.6853 17.2907C26.6677 17.2852 26.6501 17.28 26.6325 17.2747C26.4587 17.2219 26.2824 17.1753 26.1036 17.1351C26.0937 17.1328 26.0838 17.1305 26.0739 17.1283C26.0563 17.1245 26.0387 17.1207 26.0211 17.117C26.0089 17.1144 25.9966 17.1118 25.9844 17.1092C25.9339 17.0987 25.8832 17.0888 25.8323 17.0793C25.8241 17.0778 25.816 17.0762 25.8078 17.0747C25.7888 17.0712 25.7699 17.0679 25.7509 17.0646C25.7394 17.0626 25.7279 17.0605 25.7164 17.0585C25.6958 17.055 25.6753 17.0517 25.6547 17.0483C25.6473 17.0471 25.6399 17.0459 25.6325 17.0447C25.6091 17.041 25.5856 17.0374 25.5622 17.0339C25.5557 17.033 25.5493 17.032 25.5429 17.0311C25.5201 17.0277 25.4973 17.0245 25.4745 17.0213C25.4667 17.0203 25.4588 17.0192 25.451 17.0182C25.3995 17.0113 25.3479 17.0049 25.2962 16.9991C25.2853 16.9978 25.2744 16.9967 25.2635 16.9955C25.2118 16.9899 25.16 16.9848 25.1081 16.9803C25.1073 16.9802 25.1066 16.98 25.1058 16.98C24.107 16.8632 19.9977 16.2555 17.72 13.969C15.7789 12.0204 15.255 9.02668 15.114 7.62611C15.114 7.6128 15.1142 7.59948 15.1142 7.58616C15.1142 3.39643 11.7308 -6.8812e-06 7.55723 -6.72715e-06C3.38365 -6.57309e-06 0.000299675 3.39643 0.00029983 7.58616C0.000299984 11.7759 3.38365 15.1723 7.55723 15.1723C7.59227 15.1723 7.62725 15.172 7.66218 15.1715L7.66147 15.1723C7.66147 15.1723 11.0491 15.1723 13.6549 17.7882C14.1887 18.3241 14.6417 18.9532 15.0255 19.6212C16.749 22.6207 16.749 26.4539 15.0255 29.4535C14.6417 30.1214 14.1887 30.7505 13.6549 31.2864C11.0491 33.9023 7.66147 33.9023 7.66147 33.9023L7.66218 33.9031C7.62725 33.9026 7.59227 33.9023 7.55723 33.9023C3.38365 33.9023 0.000300926 37.2987 0.000301081 41.4885C0.000301236 45.6782 3.38365 49.0746 7.55723 49.0746C11.7308 49.0746 15.1142 45.6782 15.1142 41.4885C15.1142 41.4751 15.114 41.4618 15.114 41.4485C15.255 40.0479 15.7789 37.0542 17.72 35.1056C19.9977 32.8191 24.107 32.2115 25.1058 32.0947C25.1066 32.0946 25.1073 32.0945 25.1081 32.0945C25.16 32.0899 25.2118 32.0848 25.2635 32.0792C25.2744 32.078 25.2853 32.0769 25.2962 32.0757C25.3479 32.0698 25.3996 32.0634 25.451 32.0565C25.4588 32.0555 25.4667 32.0545 25.4745 32.0534C25.4973 32.0502 25.5201 32.047 25.5429 32.0437C25.5493 32.0427 25.5557 32.0418 25.5622 32.0408C25.5856 32.0373 25.6091 32.0337 25.6325 32.03C25.6399 32.0288 25.6473 32.0276 25.6547 32.0264C25.6753 32.0231 25.6958 32.0197 25.7164 32.0162C25.7279 32.0142 25.7394 32.0122 25.7509 32.0102C25.7699 32.0068 25.7888 32.0035 25.8078 32C25.816 31.9985 25.8241 31.997 25.8323 31.9954C25.8832 31.986 25.9339 31.976 25.9844 31.9655C25.9966 31.9629 26.0089 31.9603 26.0211 31.9577C26.0387 31.954 26.0563 31.9503 26.0739 31.9464C26.0838 31.9442 26.0937 31.9419 26.1036 31.9396C26.2824 31.8994 26.4587 31.8528 26.6325 31.8001C26.6501 31.7947 26.6677 31.7895 26.6853 31.784C26.6961 31.7807 26.7068 31.7772 26.7176 31.7738C26.7358 31.7681 26.7539 31.7623 26.772 31.7564C26.7872 31.7515 26.8022 31.7464 26.8173 31.7414C26.8297 31.7373 26.842 31.7333 26.8543 31.7291C26.8677 31.7246 26.8811 31.72 26.8945 31.7154C26.9117 31.7094 26.9289 31.7035 26.946 31.6975C26.9557 31.694 26.9655 31.6905 26.9752 31.687C26.9931 31.6807 27.0109 31.6742 27.0288 31.6677C27.0429 31.6626 27.0571 31.6573 27.0712 31.652C27.0828 31.6477 27.0945 31.6434 27.1061 31.639C27.1223 31.6329 27.1384 31.6267 27.1546 31.6204C27.1694 31.6147 27.1842 31.609 27.1989 31.6032C27.21 31.5988 27.221 31.5945 27.232 31.5901C27.2406 31.5866 27.2492 31.5832 27.2578 31.5798L27.2995 31.5628C27.3075 31.5595 27.3154 31.5563 27.3233 31.553C27.3332 31.5489 27.343 31.5448 27.3528 31.5407C27.3726 31.5324 27.3925 31.524 27.4123 31.5155C27.4178 31.5131 27.4232 31.5107 27.4287 31.5083C27.4496 31.4993 27.4704 31.4902 27.4912 31.481C27.501 31.4767 27.5107 31.4723 27.5205 31.468C27.5346 31.4616 27.5488 31.4553 27.5628 31.4489C27.5816 31.4403 27.6003 31.4316 27.619 31.4229C27.6271 31.4191 27.6353 31.4155 27.6434 31.4117C27.6585 31.4045 27.6736 31.3972 27.6888 31.39C27.8181 31.3282 27.9454 31.2628 28.0706 31.1939C28.1139 31.1701 28.1569 31.1459 28.1996 31.1213C28.2426 31.0965 28.2852 31.0713 28.3276 31.0457C28.3351 31.0412 28.3425 31.0368 28.35 31.0322C28.3643 31.0236 28.3785 31.0149 28.3927 31.0061C28.4035 30.9995 28.4142 30.9928 28.4249 30.9862C28.4409 30.9762 28.4569 30.966 28.4729 30.9559C28.4815 30.9505 28.4901 30.9451 28.4987 30.9396C28.5127 30.9306 28.5266 30.9216 28.5404 30.9126C28.5525 30.9048 28.5645 30.897 28.5765 30.8891C28.5896 30.8805 28.6026 30.8719 28.6157 30.8632C28.6272 30.8555 28.6387 30.8477 28.6503 30.8399C28.6627 30.8316 28.675 30.8232 28.6873 30.8148C28.6934 30.8107 28.6994 30.8066 28.7054 30.8024L28.7433 30.7763C28.7484 30.7727 28.7536 30.7691 28.7587 30.7655C28.7717 30.7564 28.7847 30.7473 28.7977 30.7381C28.8091 30.7299 28.8206 30.7218 28.832 30.7136C28.8465 30.7032 28.8609 30.6927 28.8753 30.6822C28.8833 30.6764 28.8913 30.6706 28.8993 30.6648C28.9151 30.6531 28.9309 30.6414 28.9467 30.6296C28.9557 30.6229 28.9648 30.6162 28.9738 30.6094C28.9862 30.6001 28.9986 30.5906 29.0109 30.5812C29.0228 30.5721 29.0348 30.5631 29.0466 30.5539C29.0557 30.5469 29.0648 30.5398 29.0738 30.5328C29.1109 30.5039 29.1477 30.4746 29.1843 30.445C29.1927 30.4382 29.201 30.4313 29.2094 30.4245C29.2797 30.367 29.349 30.3083 29.4172 30.2484C29.4515 30.2182 29.4857 30.1879 29.5195 30.1571C29.5319 30.1458 29.5442 30.1344 29.5565 30.123C29.5647 30.1155 29.5729 30.1079 29.581 30.1003C29.5935 30.0887 29.6059 30.0771 29.6183 30.0654C29.6285 30.0557 29.6388 30.0461 29.6489 30.0364C29.6598 30.026 29.6705 30.0155 29.6813 30.0051C29.6905 29.9962 29.6998 29.9874 29.709 29.9784C29.7231 29.9647 29.7371 29.9509 29.751 29.937C29.7573 29.9308 29.7635 29.9247 29.7698 29.9184C29.7828 29.9055 29.7957 29.8925 29.8086 29.8794C29.8177 29.8701 29.8269 29.8608 29.836 29.8515C29.8478 29.8394 29.8595 29.8273 29.8713 29.8151C29.8794 29.8067 29.8875 29.7983 29.8956 29.7899C29.9067 29.7782 29.9178 29.7665 29.9289 29.7547C29.9384 29.7447 29.9479 29.7346 29.9574 29.7245C29.9686 29.7125 29.9797 29.7005 29.9909 29.6884C29.9995 29.6791 30.008 29.6697 30.0166 29.6603C30.0282 29.6476 30.0396 29.6349 30.0511 29.6221C30.0588 29.6136 30.0665 29.605 30.0741 29.5965C30.086 29.5831 30.0979 29.5698 30.1096 29.5564C30.1165 29.5486 30.1234 29.5407 30.1302 29.5329C30.1431 29.5181 30.1561 29.5033 30.1689 29.4883C30.1742 29.4821 30.1795 29.4759 30.1849 29.4696C30.1982 29.4541 30.2114 29.4384 30.2246 29.4227C30.2311 29.4149 30.2376 29.4071 30.2441 29.3992C30.2745 29.3627 30.3047 29.326 30.3344 29.2889C30.3431 29.2781 30.3516 29.2672 30.3603 29.2563C30.3884 29.2207 30.4164 29.185 30.4439 29.1489C30.4961 29.0805 30.5472 29.0112 30.5971 28.941L30.6058 28.9289C30.6148 28.9161 30.6238 28.9032 30.6327 28.8904C30.6385 28.8821 30.6444 28.8738 30.6502 28.8655C30.6587 28.8533 30.6671 28.841 30.6755 28.8286C30.6852 28.8145 30.6948 28.8003 30.7044 28.7861C30.7101 28.7776 30.7158 28.7691 30.7215 28.7606C30.7317 28.7453 30.742 28.73 30.7521 28.7146C30.7599 28.7028 30.7676 28.691 30.7753 28.6791C30.7834 28.6667 30.7915 28.6542 30.7995 28.6417C30.8088 28.6272 30.8181 28.6127 30.8273 28.5981C30.8328 28.5893 30.8383 28.5806 30.8439 28.5718C30.8536 28.5563 30.8632 28.5407 30.8728 28.5252C30.88 28.5134 30.8873 28.5017 30.8945 28.4899C30.9017 28.478 30.9089 28.4661 30.9161 28.4541C30.924 28.441 30.9318 28.4279 30.9396 28.4148C30.9472 28.4021 30.9548 28.3894 30.9622 28.3766C30.972 28.3599 30.9817 28.3431 30.9914 28.3263C30.9951 28.3199 30.9988 28.3134 31.0025 28.307C31.0146 28.2858 31.0266 28.2645 31.0385 28.2432C31.0413 28.2382 31.044 28.2332 31.0468 28.2282C31.0557 28.2122 31.0645 28.1961 31.0733 28.1801C31.0808 28.1664 31.0882 28.1528 31.0956 28.1391C31.1007 28.1297 31.1057 28.1202 31.1108 28.1108C31.119 28.0954 31.1272 28.08 31.1353 28.0645C31.1446 28.0468 31.1537 28.0289 31.1629 28.0111C31.1669 28.0032 31.1711 27.9954 31.1751 27.9875C31.2291 27.8815 31.2807 27.774 31.3298 27.6652C31.336 27.6515 31.342 27.6377 31.3481 27.624C31.3546 27.6093 31.3613 27.5947 31.3677 27.5801C31.374 27.5655 31.3802 27.5509 31.3865 27.5363C31.3916 27.5245 31.3967 27.5127 31.4017 27.5009C31.4074 27.4873 31.413 27.4738 31.4187 27.4602C31.4253 27.4442 31.432 27.4281 31.4385 27.4121C31.4429 27.4013 31.4472 27.3905 31.4516 27.3797C31.4564 27.3677 31.4612 27.3557 31.466 27.3437L31.4758 27.319C31.4793 27.31 31.4829 27.3009 31.4864 27.2919C31.4918 27.278 31.4971 27.2641 31.5024 27.2502C31.5087 27.2339 31.5148 27.2176 31.5209 27.2013C31.5256 27.1885 31.5304 27.1757 31.5351 27.1629C31.5395 27.151 31.5438 27.1391 31.5482 27.1272C31.5551 27.108 31.5619 27.0888 31.5687 27.0695C31.5713 27.0621 31.5739 27.0546 31.5766 27.0472C31.584 27.0259 31.5914 27.0046 31.5986 26.9832C31.6016 26.9743 31.6046 26.9654 31.6076 26.9565C31.6133 26.9394 31.619 26.9221 31.6246 26.9049C31.629 26.8914 31.6334 26.878 31.6377 26.8645C31.6425 26.8495 31.6473 26.8346 31.652 26.8196C31.6563 26.8058 31.6606 26.7919 31.6649 26.778C31.6696 26.7627 31.6742 26.7473 31.6788 26.7319C31.6829 26.7185 31.6869 26.7052 31.6909 26.6918C31.6952 26.6772 31.6994 26.6626 31.7036 26.6479C31.7081 26.6321 31.7128 26.6163 31.7172 26.6004C31.7203 26.5895 31.7233 26.5785 31.7263 26.5676C31.7313 26.5495 31.7363 26.5314 31.7411 26.5132C31.7444 26.5011 31.7475 26.4889 31.7507 26.4767C31.7551 26.4599 31.7596 26.4431 31.7638 26.4263C31.7671 26.4134 31.7703 26.4004 31.7735 26.3875C31.7884 26.3278 31.8027 26.268 31.8162 26.2078C31.8263 26.1627 31.8361 26.1174 31.8454 26.0719C31.8549 26.0256 31.8638 25.9791 31.8725 25.9324C31.8754 25.9166 31.8783 25.9008 31.8811 25.885C31.8822 25.8789 31.8833 25.8727 31.8844 25.8665C31.8886 25.8423 31.8929 25.8181 31.8969 25.7938C31.8991 25.7806 31.9011 25.7675 31.9032 25.7543C31.9054 25.7404 31.9077 25.7264 31.9099 25.7124C31.9127 25.6944 31.9154 25.6763 31.9181 25.6583C31.9201 25.6443 31.9222 25.6302 31.9242 25.6162C31.9265 25.5995 31.9288 25.5829 31.9311 25.5662C31.9328 25.5535 31.9344 25.5407 31.9361 25.528C31.9385 25.5096 31.9408 25.4912 31.9431 25.4727C31.9447 25.4596 31.9462 25.4465 31.9478 25.4334C31.9497 25.4171 31.9516 25.4008 31.9534 25.3844C31.955 25.3701 31.9566 25.3557 31.9581 25.3413C31.96 25.323 31.9618 25.3047 31.9636 25.2863C31.9647 25.275 31.9658 25.2636 31.9668 25.2522C31.9686 25.2325 31.9704 25.2128 31.9721 25.193C31.973 25.1827 31.9738 25.1725 31.9747 25.1622C31.9763 25.1422 31.9779 25.1222 31.9793 25.1022C31.9806 25.0846 31.9818 25.0671 31.983 25.0495C31.9837 25.0385 31.9845 25.0276 31.9851 25.0167C31.9865 24.9953 31.9877 24.9739 31.9888 24.9525C31.9894 24.9407 31.9901 24.9289 31.9906 24.9171C31.9912 24.9047 31.9918 24.8922 31.9924 24.8797C31.9933 24.8588 31.9943 24.8378 31.995 24.8168C31.9952 24.812 31.9953 24.8072 31.9954 24.8025C31.9963 24.7762 31.9971 24.7499 31.9978 24.7235C31.9992 24.6616 32 24.5995 32 24.5373Z" fill="white"/>
</svg>
