<svg width="68" height="74" viewBox="0 0 68 74" fill="none" xmlns="http://www.w3.org/2000/svg">
<path d="M51.5963 30.822C51.4153 28.378 50.8722 26.0245 49.967 23.7615C49.1523 21.4985 47.9755 19.5523 46.4367 17.9229C44.9884 16.2031 43.178 14.8453 41.0055 13.8495C38.9235 12.7633 36.57 12.2202 33.945 12.2202C31.2294 12.2202 28.7401 12.718 26.4771 13.7138C24.3046 14.619 22.4037 15.9315 20.7743 17.6514C19.2355 19.2807 17.9682 21.2269 16.9725 23.4899C16.0673 25.7529 15.5694 28.1969 15.4789 30.822H51.5963ZM15.4789 41.0055C15.4789 43.7211 15.841 46.3462 16.5651 48.8807C17.3798 51.4153 18.5566 53.633 20.0954 55.5339C21.6343 57.4348 23.5804 58.9737 25.9339 60.1504C28.2875 61.2367 31.0936 61.7798 34.3523 61.7798C38.8783 61.7798 42.4991 60.8293 45.2147 58.9284C48.0208 56.937 50.1027 53.9951 51.4605 50.1027H66.1248C65.3101 53.9046 63.907 57.2991 61.9156 60.2862C59.9242 63.2734 57.5254 65.8079 54.7192 67.8899C51.9131 69.8813 48.7449 71.3749 45.2147 72.3706C41.7749 73.4569 38.1541 74 34.3523 74C28.8306 74 23.9425 73.0948 19.6881 71.2844C15.4336 69.474 11.8128 66.9394 8.82569 63.6807C5.92906 60.422 3.71133 56.5297 2.17249 52.0037C0.724176 47.4777 0 42.4991 0 37.0679C0 32.0893 0.769441 27.3823 2.30828 22.9468C3.93764 18.4208 6.20063 14.4832 9.09727 11.1339C12.0844 7.69419 15.6599 4.97859 19.8239 2.98716C23.9878 0.995718 28.6948 0 33.945 0C39.4667 0 44.4 1.17676 48.7449 3.53028C53.1804 5.79327 56.8465 8.82569 59.7431 12.6275C62.6397 16.4294 64.7217 20.8196 65.989 25.7982C67.3468 30.6862 67.7089 35.7553 67.0752 41.0055H15.4789Z" fill="white" fill-opacity="0.6"/>
</svg>
