<svg width="71" height="74" viewBox="0 0 71 74" fill="none" xmlns="http://www.w3.org/2000/svg">
<path d="M35.4385 74C29.8263 74 24.8024 73.0948 20.367 71.2844C16.022 69.3835 12.3107 66.8037 9.23302 63.5449C6.24586 60.2862 3.93761 56.3939 2.30825 51.8679C0.769417 47.3419 0 42.3633 0 36.9321C0 31.5914 0.769417 26.6581 2.30825 22.1321C3.93761 17.6061 6.24586 13.7138 9.23302 10.455C12.3107 7.19633 16.022 4.66177 20.367 2.85137C24.8024 0.950457 29.8263 0 35.4385 0C41.0507 0 46.0293 0.950457 50.3743 2.85137C54.8097 4.66177 58.5211 7.19633 61.5082 10.455C64.5859 13.7138 66.8941 17.6061 68.433 22.1321C70.0623 26.6581 70.877 31.5914 70.877 36.9321C70.877 42.3633 70.0623 47.3419 68.433 51.8679C66.8941 56.3939 64.5859 60.2862 61.5082 63.5449C58.5211 66.8037 54.8097 69.3835 50.3743 71.2844C46.0293 73.0948 41.0507 74 35.4385 74ZM35.4385 61.7798C38.8783 61.7798 41.8654 61.0556 44.4 59.6073C46.9345 58.159 49.0165 56.2581 50.6458 53.9046C52.2752 51.5511 53.4519 48.926 54.1761 46.0293C54.9908 43.0422 55.3981 40.0098 55.3981 36.9321C55.3981 33.9449 54.9908 30.9578 54.1761 27.9706C53.4519 24.9835 52.2752 22.3584 50.6458 20.0954C49.0165 17.7419 46.9345 15.841 44.4 14.3927C41.8654 12.9443 38.8783 12.2202 35.4385 12.2202C31.9987 12.2202 29.0116 12.9443 26.477 14.3927C23.9425 15.841 21.8605 17.7419 20.2312 20.0954C18.6018 22.3584 17.3798 24.9835 16.5651 27.9706C15.841 30.9578 15.4789 33.9449 15.4789 36.9321C15.4789 40.0098 15.841 43.0422 16.5651 46.0293C17.3798 48.926 18.6018 51.5511 20.2312 53.9046C21.8605 56.2581 23.9425 58.159 26.477 59.6073C29.0116 61.0556 31.9987 61.7798 35.4385 61.7798Z" fill="white" fill-opacity="0.6"/>
</svg>
