<svg width="62" height="72" viewBox="0 0 62 72" fill="none" xmlns="http://www.w3.org/2000/svg">
<path d="M0 1.89831H14.6441V12.2034L14.9153 12.4746C17.2655 8.58758 20.339 5.55932 24.1356 3.38983C27.9322 1.12994 32.1356 0 36.7458 0C44.4294 0 50.4859 1.9887 54.9153 5.9661C59.3446 9.9435 61.5593 15.9096 61.5593 23.8644V72H46.1017V27.9322C45.9209 22.4181 44.7458 18.4407 42.5763 16C40.4068 13.4689 37.017 12.2034 32.4068 12.2034C29.7853 12.2034 27.435 12.7006 25.3559 13.6949C23.2768 14.5989 21.5141 15.9096 20.0678 17.6271C18.6215 19.2542 17.4915 21.1978 16.678 23.4576C15.8644 25.7175 15.4576 28.113 15.4576 30.6441V72H0V1.89831Z" fill="white" fill-opacity="0.6"/>
</svg>
