<svg width="69" height="100" viewBox="0 0 69 100" fill="none" xmlns="http://www.w3.org/2000/svg">
<path d="M68.3424 68.4783C68.3424 79.0761 65.3532 86.9565 59.375 92.1196C53.4873 97.3732 44.9728 100 33.8315 100C30.2989 100 26.721 99.6377 23.0978 98.913C19.5652 98.1884 16.3043 96.9656 13.3152 95.2446C10.4167 93.5236 7.97101 91.2591 5.97826 88.4511C3.98551 85.6431 2.80797 82.2011 2.44565 78.125H17.9348C18.3877 80.2989 19.1576 82.0652 20.2446 83.4239C21.3315 84.7826 22.5996 85.8243 24.0489 86.5489C25.5888 87.3641 27.2645 87.8623 29.0761 88.0435C30.8877 88.3152 32.7898 88.4511 34.7826 88.4511C41.0326 88.4511 45.6069 86.9112 48.5054 83.8315C51.404 80.7518 52.8532 76.3134 52.8532 70.5163V59.7826H52.5815C50.4076 63.6775 47.4185 66.712 43.6141 68.8859C39.9003 71.0598 35.8696 72.1467 31.5217 72.1467C25.9058 72.1467 21.1051 71.1957 17.1196 69.2935C13.2246 67.3007 9.96377 64.6286 7.33696 61.2772C4.80073 57.8351 2.94384 53.8949 1.76631 49.4565C0.58877 45.0181 0 40.2627 0 35.1902C0 30.4801 0.724639 25.9964 2.17391 21.7391C3.62319 17.4819 5.70652 13.7681 8.42391 10.5978C11.1413 7.33696 14.4475 4.75543 18.3424 2.85326C22.3279 0.951085 26.8116 0 31.7935 0C36.2319 0 40.308 0.951085 44.0217 2.85326C47.7355 4.66485 50.5888 7.5634 52.5815 11.5489H52.8532V1.90217H68.3424V68.4783ZM33.9674 59.9185C37.4094 59.9185 40.3079 59.2391 42.663 57.8804C45.1087 56.4312 47.0561 54.5743 48.5054 52.3098C50.0453 49.9547 51.1322 47.3279 51.7663 44.4293C52.4909 41.4402 52.8532 38.4511 52.8532 35.462C52.8532 32.4728 52.4909 29.5743 51.7663 26.7663C51.0416 23.9583 49.9094 21.4674 48.3696 19.2935C46.9203 17.1196 44.9728 15.3986 42.5272 14.1304C40.1721 12.8623 37.3188 12.2283 33.9674 12.2283C30.5253 12.2283 27.6268 12.9529 25.2717 14.4022C22.9167 15.8515 21.0145 17.7536 19.5652 20.1087C18.1159 22.3732 17.0743 25 16.4402 27.9891C15.8061 30.8877 15.4891 33.7862 15.4891 36.6848C15.4891 39.5833 15.8514 42.4366 16.5761 45.2446C17.3007 47.962 18.3877 50.4076 19.8369 52.5815C21.3768 54.7554 23.279 56.5217 25.5435 57.8804C27.8985 59.2391 30.7065 59.9185 33.9674 59.9185Z" fill="white" fill-opacity="0.6"/>
</svg>
