<svg width="42" height="72" viewBox="0 0 42 72" fill="none" xmlns="http://www.w3.org/2000/svg">
<path d="M0 1.89831H14.5085V15.4576H14.7797C15.2317 13.5593 16.0904 11.7062 17.3559 9.89831C18.7119 8.0904 20.2938 6.46328 22.1017 5.01695C24 3.48023 26.0791 2.25989 28.339 1.35593C30.5989 0.451978 32.904 0 35.2543 0C37.0622 0 38.2825 0.0451961 38.9153 0.13559C39.6384 0.225985 40.3616 0.316383 41.0848 0.406783V15.322C40 15.1412 38.8701 15.0057 37.6949 14.9153C36.6102 14.7345 35.5254 14.6441 34.4407 14.6441C31.8192 14.6441 29.3334 15.1865 26.9831 16.2712C24.7232 17.2655 22.7345 18.8023 21.017 20.8814C19.2995 22.8701 17.9435 25.3559 16.9492 28.339C15.9548 31.3221 15.4576 34.7571 15.4576 38.6441V72H0V1.89831Z" fill="white" fill-opacity="0.6"/>
</svg>
