<svg width="17" height="25" viewBox="0 0 17 25" fill="none" xmlns="http://www.w3.org/2000/svg">
<path d="M16.3016 12.5C16.3016 12.4683 16.3012 12.4367 16.3005 12.4052C16.3002 12.3918 16.2998 12.3784 16.2993 12.365C16.2992 12.3625 16.2992 12.3601 16.2991 12.3577C16.2987 12.347 16.2982 12.3363 16.2977 12.3256C16.2975 12.3193 16.2972 12.3129 16.2969 12.3066C16.2966 12.3006 16.2962 12.2946 16.2959 12.2886C16.2953 12.2776 16.2947 12.2667 16.2941 12.2559C16.2937 12.2503 16.2933 12.2447 16.293 12.2392C16.2924 12.2302 16.2918 12.2212 16.2911 12.2123C16.2904 12.2021 16.2895 12.1919 16.2887 12.1817C16.2883 12.1765 16.2879 12.1713 16.2874 12.166C16.2866 12.156 16.2857 12.1459 16.2847 12.1359C16.2842 12.1301 16.2836 12.1243 16.2831 12.1185C16.2822 12.1091 16.2812 12.0998 16.2803 12.0905C16.2795 12.0832 16.2787 12.0758 16.2779 12.0685C16.277 12.0602 16.276 12.0519 16.275 12.0436C16.2742 12.0369 16.2735 12.0302 16.2726 12.0235C16.2715 12.0141 16.2703 12.0048 16.2691 11.9954C16.2682 11.9889 16.2674 11.9824 16.2665 11.9759C16.2654 11.9674 16.2642 11.9589 16.263 11.9505C16.262 11.9433 16.2609 11.9362 16.2599 11.929C16.2585 11.9198 16.2572 11.9106 16.2557 11.9014C16.2546 11.8943 16.2535 11.8872 16.2523 11.8801C16.2512 11.8734 16.2502 11.8667 16.2491 11.86C16.247 11.8476 16.2449 11.8353 16.2427 11.8229C16.2422 11.8198 16.2416 11.8166 16.2411 11.8135C16.2396 11.8054 16.2381 11.7974 16.2367 11.7893C16.2323 11.7656 16.2277 11.7419 16.2229 11.7183C16.2181 11.6951 16.2131 11.6721 16.208 11.6491C16.2011 11.6184 16.1938 11.5879 16.1863 11.5575C16.1846 11.5509 16.183 11.5443 16.1813 11.5377C16.1791 11.5292 16.1769 11.5206 16.1746 11.5121C16.173 11.5059 16.1714 11.4997 16.1698 11.4935C16.1673 11.4842 16.1647 11.475 16.1622 11.4658C16.1607 11.4602 16.1591 11.4546 16.1576 11.4491C16.1553 11.441 16.1529 11.4329 16.1506 11.4248C16.1485 11.4174 16.1463 11.41 16.1441 11.4025C16.1421 11.3957 16.1401 11.3889 16.138 11.3821C16.1357 11.3742 16.1333 11.3664 16.1309 11.3586C16.1287 11.3515 16.1266 11.3445 16.1243 11.3374C16.1219 11.3298 16.1195 11.3222 16.1171 11.3145C16.1149 11.3077 16.1126 11.3008 16.1104 11.2939C16.1075 11.2852 16.1047 11.2764 16.1017 11.2676C16.1002 11.2631 16.0987 11.2586 16.0972 11.2541C16.0935 11.2432 16.0897 11.2323 16.0859 11.2215C16.0846 11.2177 16.0833 11.2139 16.0819 11.2101C16.0785 11.2003 16.075 11.1905 16.0714 11.1807C16.0703 11.1776 16.0692 11.1744 16.068 11.1712L16.0616 11.1537C16.0603 11.1501 16.0589 11.1466 16.0575 11.143C16.0544 11.1346 16.0513 11.1263 16.0482 11.118C16.0455 11.1109 16.0427 11.1039 16.04 11.0968C16.0374 11.0901 16.0347 11.0834 16.0321 11.0767C16.0288 11.0685 16.0255 11.0603 16.0222 11.0521C16.02 11.0466 16.0178 11.0411 16.0156 11.0356C16.0123 11.0274 16.0089 11.0192 16.0055 11.0111C16.0026 11.0041 15.9997 10.9972 15.9968 10.9903C15.9943 10.9843 15.9917 10.9783 15.9891 10.9723C15.9859 10.9648 15.9827 10.9574 15.9795 10.95C15.9762 10.9425 15.9729 10.9351 15.9696 10.9276C15.9664 10.9206 15.9634 10.9136 15.9602 10.9066C15.9352 10.8512 15.9089 10.7965 15.8814 10.7425C15.8793 10.7384 15.8772 10.7344 15.8752 10.7304C15.8705 10.7213 15.8659 10.7122 15.8611 10.7032C15.857 10.6953 15.8528 10.6875 15.8486 10.6796C15.8461 10.6748 15.8435 10.67 15.8409 10.6652C15.8371 10.6582 15.8333 10.6513 15.8295 10.6443C15.8251 10.6361 15.8206 10.628 15.8161 10.6198C15.8146 10.6173 15.8132 10.6147 15.8118 10.6122C15.8057 10.6013 15.7996 10.5905 15.7935 10.5797C15.7916 10.5764 15.7897 10.5731 15.7878 10.5698C15.7829 10.5613 15.778 10.5527 15.773 10.5442C15.7692 10.5377 15.7653 10.5312 15.7615 10.5248C15.7575 10.5181 15.7535 10.5114 15.7495 10.5047C15.7458 10.4986 15.7421 10.4926 15.7384 10.4865C15.7348 10.4805 15.7311 10.4745 15.7274 10.4685C15.7225 10.4606 15.7176 10.4527 15.7127 10.4448C15.7099 10.4403 15.707 10.4358 15.7042 10.4314C15.6995 10.4239 15.6948 10.4165 15.6901 10.4091C15.686 10.4028 15.6818 10.3964 15.6777 10.3901C15.6738 10.3841 15.6699 10.378 15.6659 10.372C15.6608 10.3642 15.6555 10.3564 15.6503 10.3486C15.6474 10.3443 15.6445 10.3399 15.6416 10.3356C15.6367 10.3284 15.6318 10.3211 15.6269 10.3139C15.6226 10.3077 15.6183 10.3014 15.614 10.2951C15.611 10.2909 15.6081 10.2867 15.6051 10.2825C15.5997 10.2747 15.5943 10.2669 15.5888 10.2592C15.5628 10.2226 15.5362 10.1864 15.5089 10.1507C15.4949 10.1324 15.4806 10.1142 15.4663 10.0961C15.4619 10.0905 15.4575 10.085 15.4531 10.0795C15.438 10.0606 15.4226 10.0419 15.4071 10.0233C15.4038 10.0193 15.4005 10.0153 15.3972 10.0113C15.3905 10.0033 15.3837 9.99533 15.377 9.98739C15.3742 9.98421 15.3715 9.98103 15.3688 9.97786C15.3623 9.97026 15.3557 9.96272 15.3491 9.95517C15.3456 9.95117 15.3421 9.94718 15.3386 9.94319C15.3326 9.93637 15.3266 9.92957 15.3205 9.92279C15.3166 9.91841 15.3127 9.91403 15.3088 9.90967C15.303 9.90318 15.2971 9.8967 15.2912 9.89025C15.2869 9.88547 15.2825 9.8807 15.2781 9.87594C15.2725 9.86979 15.2668 9.86367 15.2611 9.85756C15.2562 9.8524 15.2514 9.84729 15.2465 9.84215C15.2409 9.83618 15.2353 9.83019 15.2296 9.82425C15.2255 9.81994 15.2213 9.81567 15.2172 9.81139C15.2112 9.8052 15.2053 9.799 15.1992 9.79286C15.1946 9.7881 15.1899 9.78338 15.1852 9.77865C15.1787 9.772 15.1721 9.76536 15.1655 9.75876C15.1623 9.7556 15.1591 9.75244 15.1559 9.74929C15.1488 9.74224 15.1417 9.7352 15.1345 9.7282C15.1299 9.72365 15.1251 9.71915 15.1204 9.71462C15.1149 9.70931 15.1095 9.70397 15.1039 9.69869C15.0988 9.69374 15.0935 9.68882 15.0883 9.6839C15.082 9.67795 15.0757 9.67201 15.0693 9.6661C15.0652 9.66224 15.061 9.65839 15.0569 9.65455C15.0506 9.64874 15.0443 9.64292 15.038 9.63716C15.0208 9.62148 15.0034 9.60604 14.9859 9.59067C14.9511 9.56016 14.9158 9.53025 14.88 9.50098C14.8758 9.4975 14.8715 9.49399 14.8672 9.49052C14.8486 9.47544 14.8299 9.46053 14.811 9.4458C14.8063 9.44221 14.8017 9.4386 14.7971 9.43503C14.7911 9.43036 14.785 9.42576 14.7789 9.42113C14.7726 9.41632 14.7663 9.41153 14.76 9.40676C14.7554 9.40331 14.7508 9.39989 14.7462 9.39646C14.7382 9.39046 14.7301 9.38448 14.722 9.37855C14.718 9.37558 14.7139 9.37265 14.7098 9.3697C14.7025 9.36434 14.6951 9.35897 14.6877 9.35366C14.6819 9.3495 14.6761 9.34536 14.6703 9.34122C14.6637 9.33654 14.6571 9.33186 14.6504 9.32722C14.6446 9.32316 14.6388 9.31912 14.6329 9.31509C14.6267 9.31075 14.6204 9.30643 14.6141 9.30213C14.6078 9.29784 14.6015 9.29357 14.5952 9.28932C14.5893 9.28536 14.5835 9.28138 14.5776 9.27745C14.5709 9.27304 14.5643 9.26866 14.5576 9.26429C14.5515 9.26027 14.5454 9.25629 14.5392 9.25231C14.5322 9.24772 14.5251 9.24312 14.518 9.23857C14.5136 9.23577 14.5092 9.23302 14.5048 9.23024C14.4967 9.22509 14.4885 9.21993 14.4804 9.21483C14.4749 9.21143 14.4695 9.20805 14.464 9.20468C14.4568 9.20022 14.4495 9.19578 14.4422 9.19136C14.4384 9.18905 14.4346 9.18678 14.4308 9.18448C14.4092 9.17147 14.3875 9.15862 14.3656 9.14602C14.3438 9.13346 14.3219 9.12114 14.2999 9.109C14.2361 9.07392 14.1713 9.04061 14.1054 9.00911C14.0977 9.00542 14.09 9.00171 14.0822 8.99807C14.0781 8.99614 14.074 8.99427 14.0698 8.99235C14.0603 8.98791 14.0508 8.98348 14.0412 8.97912C14.034 8.97585 14.0268 8.97262 14.0196 8.96939C14.0147 8.96716 14.0097 8.96494 14.0047 8.96273C13.9941 8.95804 13.9835 8.95342 13.9729 8.94883C13.9701 8.94762 13.9673 8.94638 13.9645 8.94519C13.9544 8.94085 13.9443 8.93658 13.9342 8.93233C13.9292 8.93023 13.9242 8.92815 13.9192 8.92608C13.9116 8.92294 13.904 8.91985 13.8964 8.91676C13.8885 8.91355 13.8806 8.91035 13.8727 8.90718C13.8671 8.90495 13.8615 8.90273 13.8558 8.90052C13.8483 8.89756 13.8408 8.89464 13.8332 8.89172C13.825 8.88855 13.8168 8.88537 13.8085 8.88225C13.8026 8.88001 13.7967 8.87785 13.7908 8.87564C13.7836 8.87296 13.7764 8.87026 13.7691 8.86762C13.7601 8.86431 13.751 8.86103 13.7419 8.85778C13.7369 8.85601 13.7319 8.85423 13.727 8.85247C13.7182 8.8494 13.7095 8.84638 13.7007 8.84336C13.6939 8.84102 13.6871 8.83865 13.6803 8.83634C13.674 8.83422 13.6677 8.83217 13.6614 8.83009C13.6537 8.82754 13.6461 8.82494 13.6384 8.82244C13.6291 8.81944 13.6199 8.81652 13.6106 8.81359C13.6051 8.81185 13.5997 8.81009 13.5942 8.80838C13.5852 8.8056 13.5762 8.80293 13.5673 8.80021C13.4788 8.77336 13.3889 8.7496 13.2978 8.7291C13.2928 8.72797 13.2877 8.72678 13.2827 8.72567C13.2737 8.72369 13.2648 8.7218 13.2558 8.71989C13.2496 8.71856 13.2434 8.71723 13.2371 8.71593C13.2114 8.71058 13.1855 8.70551 13.1596 8.70068C13.1555 8.6999 13.1513 8.6991 13.1471 8.69834C13.1375 8.69657 13.1278 8.69488 13.1182 8.69318C13.1123 8.69216 13.1064 8.69111 13.1006 8.69011C13.0901 8.68833 13.0796 8.6866 13.0691 8.68491C13.0654 8.6843 13.0616 8.68368 13.0578 8.68309C13.0459 8.68119 13.034 8.67935 13.022 8.67757C13.0187 8.67708 13.0155 8.67659 13.0122 8.67611C13.0006 8.67441 12.989 8.67276 12.9774 8.67116C12.9734 8.67062 12.9694 8.67008 12.9654 8.66955C12.9392 8.66604 12.9129 8.66279 12.8865 8.65982C12.881 8.65919 12.8754 8.6586 12.8699 8.658C12.8436 8.65514 12.8172 8.65256 12.7907 8.65024C12.7903 8.65021 12.7899 8.65012 12.7895 8.65008C12.2807 8.59059 10.1873 8.28103 9.027 7.11621C8.03815 6.12354 7.77128 4.59846 7.69941 3.88497C7.69945 3.87819 7.69951 3.8714 7.69951 3.86462C7.69951 1.73026 5.97594 1.18289e-05 3.8498 1.19074e-05C1.72367 1.19859e-05 9.07232e-05 1.73026 9.0802e-05 3.86462C9.08808e-05 5.99898 1.72367 7.72922 3.8498 7.72922C3.86765 7.72922 3.88547 7.72905 3.90326 7.7288L3.9029 7.72922C3.9029 7.72922 5.62864 7.72922 6.95612 9.06184C7.22804 9.33481 7.45885 9.65532 7.65437 9.99559C8.53237 11.5236 8.53237 13.4764 7.65437 15.0044C7.45885 15.3447 7.22804 15.6652 6.95612 15.9382C5.62864 17.2708 3.9029 17.2708 3.9029 17.2708L3.90327 17.2712C3.88547 17.271 3.86765 17.2708 3.8498 17.2708C1.72367 17.2708 9.13608e-05 19.001 9.14395e-05 21.1354C9.15183e-05 23.2698 1.72367 25 3.8498 25C5.97594 25 7.69952 23.2698 7.69952 21.1354C7.69952 21.1286 7.69945 21.1218 7.69941 21.115C7.77128 20.4016 8.03815 18.8765 9.027 17.8838C10.1873 16.719 12.2807 16.4094 12.7895 16.3499C12.7899 16.3499 12.7903 16.3499 12.7907 16.3498C12.8172 16.3475 12.8436 16.3449 12.8699 16.3421C12.8754 16.3415 12.881 16.3409 12.8865 16.3402C12.9129 16.3373 12.9392 16.334 12.9654 16.3305C12.9694 16.33 12.9734 16.3294 12.9774 16.3289C12.989 16.3273 13.0006 16.3257 13.0122 16.324C13.0155 16.3235 13.0187 16.323 13.022 16.3225C13.034 16.3207 13.0459 16.3189 13.0578 16.317C13.0616 16.3164 13.0654 16.3158 13.0691 16.3152C13.0796 16.3135 13.0901 16.3117 13.1006 16.31C13.1064 16.309 13.1123 16.3079 13.1182 16.3069C13.1278 16.3052 13.1375 16.3035 13.1471 16.3017C13.1513 16.301 13.1555 16.3002 13.1596 16.2994C13.1855 16.2946 13.2114 16.2895 13.2371 16.2841C13.2434 16.2828 13.2496 16.2815 13.2558 16.2802C13.2648 16.2783 13.2737 16.2764 13.2827 16.2744C13.2877 16.2733 13.2928 16.2721 13.2978 16.271C13.3889 16.2505 13.4788 16.2267 13.5673 16.1999C13.5762 16.1971 13.5852 16.1945 13.5942 16.1917C13.5997 16.19 13.6051 16.1882 13.6106 16.1865C13.6199 16.1835 13.6291 16.1806 13.6384 16.1776C13.6461 16.1751 13.6537 16.1725 13.6614 16.17C13.6677 16.1679 13.674 16.1658 13.6803 16.1637C13.6871 16.1614 13.6939 16.159 13.7007 16.1567C13.7095 16.1537 13.7183 16.1507 13.727 16.1476C13.7319 16.1458 13.7369 16.1441 13.7419 16.1423C13.751 16.139 13.7601 16.1358 13.7691 16.1324C13.7764 16.1298 13.7836 16.1271 13.7908 16.1244C13.7967 16.1222 13.8026 16.1201 13.8085 16.1178C13.8168 16.1147 13.825 16.1115 13.8332 16.1083C13.8408 16.1054 13.8483 16.1025 13.8558 16.0995C13.8615 16.0973 13.8671 16.0951 13.8727 16.0929C13.8771 16.0911 13.8814 16.0894 13.8858 16.0876L13.9071 16.079C13.9111 16.0773 13.9152 16.0757 13.9192 16.074C13.9242 16.0719 13.9292 16.0698 13.9342 16.0677C13.9443 16.0635 13.9544 16.0592 13.9645 16.0549C13.9673 16.0537 13.9701 16.0524 13.9729 16.0512C13.9835 16.0466 13.9941 16.042 14.0047 16.0373C14.0097 16.0351 14.0147 16.0329 14.0196 16.0307C14.0268 16.0274 14.034 16.0242 14.0412 16.0209C14.0508 16.0166 14.0603 16.0122 14.0698 16.0077C14.074 16.0058 14.0781 16.0039 14.0822 16.002C14.09 15.9984 14.0977 15.9946 14.1054 15.991C14.1713 15.9595 14.2361 15.9261 14.2999 15.8911C14.3219 15.8789 14.3438 15.8666 14.3656 15.854C14.3875 15.8414 14.4092 15.8286 14.4308 15.8156C14.4346 15.8133 14.4384 15.811 14.4422 15.8087C14.4495 15.8043 14.4568 15.7998 14.464 15.7954C14.4695 15.792 14.4749 15.7886 14.4804 15.7852C14.4885 15.7801 14.4967 15.775 14.5048 15.7698C14.5092 15.767 14.5136 15.7643 14.518 15.7615C14.5251 15.7569 14.5322 15.7523 14.5392 15.7478C14.5454 15.7438 14.5515 15.7398 14.5576 15.7358C14.5643 15.7314 14.5709 15.727 14.5776 15.7226C14.5835 15.7187 14.5893 15.7147 14.5952 15.7107C14.6015 15.7065 14.6078 15.7022 14.6141 15.6979C14.6171 15.6958 14.6202 15.6937 14.6233 15.6916L14.6426 15.6783C14.6452 15.6765 14.6478 15.6747 14.6504 15.6728C14.6571 15.6682 14.6637 15.6635 14.6703 15.6588C14.6761 15.6547 14.6819 15.6506 14.6877 15.6464C14.6951 15.6411 14.7025 15.6357 14.7098 15.6304C14.7139 15.6274 14.718 15.6245 14.722 15.6215C14.7301 15.6156 14.7382 15.6096 14.7462 15.6036C14.7508 15.6002 14.7554 15.5968 14.76 15.5933C14.7663 15.5885 14.7726 15.5837 14.7789 15.5789C14.785 15.5743 14.7911 15.5697 14.7971 15.565C14.8017 15.5615 14.8063 15.5579 14.811 15.5543C14.8299 15.5395 14.8486 15.5246 14.8672 15.5095C14.8715 15.5061 14.8758 15.5026 14.88 15.4991C14.9158 15.4698 14.9511 15.4399 14.9859 15.4094C15.0034 15.394 15.0208 15.3786 15.038 15.3629C15.0443 15.3571 15.0506 15.3513 15.0569 15.3455C15.061 15.3417 15.0652 15.3378 15.0693 15.334C15.0757 15.3281 15.082 15.3221 15.0883 15.3162C15.0935 15.3112 15.0988 15.3063 15.1039 15.3014C15.1095 15.2961 15.1149 15.2908 15.1204 15.2854C15.1251 15.2809 15.1299 15.2764 15.1345 15.2719C15.1417 15.2649 15.1488 15.2578 15.1559 15.2508C15.1591 15.2476 15.1623 15.2445 15.1655 15.2413C15.1721 15.2347 15.1787 15.2281 15.1852 15.2214C15.1899 15.2167 15.1946 15.212 15.1992 15.2072C15.2053 15.2011 15.2112 15.1949 15.2172 15.1887C15.2213 15.1844 15.2255 15.1801 15.2296 15.1758C15.2353 15.1699 15.2409 15.1639 15.2465 15.1579C15.2514 15.1528 15.2562 15.1477 15.2611 15.1425C15.2668 15.1364 15.2725 15.1303 15.2781 15.1241C15.2825 15.1194 15.2869 15.1146 15.2912 15.1098C15.2971 15.1034 15.303 15.0968 15.3088 15.0903C15.3127 15.086 15.3166 15.0816 15.3205 15.0773C15.3266 15.0705 15.3326 15.0637 15.3386 15.0569C15.3421 15.0529 15.3456 15.0489 15.3491 15.0449C15.3557 15.0373 15.3623 15.0298 15.3688 15.0222C15.3715 15.019 15.3742 15.0159 15.377 15.0127C15.3837 15.0047 15.3905 14.9968 15.3972 14.9888C15.4005 14.9848 15.4038 14.9808 15.4071 14.9768C15.4226 14.9582 15.438 14.9395 15.4531 14.9206C15.4575 14.9151 15.4619 14.9095 15.4663 14.904C15.4807 14.8859 15.4949 14.8677 15.5089 14.8493C15.5355 14.8144 15.5615 14.7791 15.587 14.7434L15.5914 14.7372C15.596 14.7307 15.6005 14.7241 15.6051 14.7176C15.6081 14.7134 15.611 14.7092 15.614 14.7049C15.6183 14.6987 15.6226 14.6924 15.6269 14.6861C15.6318 14.6789 15.6367 14.6717 15.6416 14.6645C15.6445 14.6601 15.6474 14.6558 15.6503 14.6515C15.6555 14.6437 15.6608 14.6359 15.6659 14.628C15.6699 14.622 15.6738 14.616 15.6777 14.61C15.6818 14.6036 15.686 14.5973 15.6901 14.5909C15.6948 14.5835 15.6995 14.5761 15.7042 14.5687C15.707 14.5642 15.7099 14.5597 15.7127 14.5553C15.7176 14.5474 15.7225 14.5395 15.7274 14.5315C15.7311 14.5255 15.7348 14.5196 15.7384 14.5136C15.7421 14.5075 15.7458 14.5014 15.7495 14.4953C15.7535 14.4887 15.7575 14.482 15.7615 14.4753C15.7653 14.4688 15.7692 14.4623 15.773 14.4558C15.778 14.4473 15.7829 14.4388 15.7878 14.4302C15.7897 14.4269 15.7916 14.4237 15.7935 14.4204C15.7996 14.4096 15.8057 14.3988 15.8118 14.3879C15.8132 14.3854 15.8146 14.3828 15.8161 14.3803C15.8206 14.3721 15.8251 14.3639 15.8295 14.3557C15.8333 14.3488 15.8371 14.3418 15.8409 14.3349C15.8435 14.3301 15.8461 14.3253 15.8486 14.3204C15.8528 14.3126 15.857 14.3047 15.8611 14.2969C15.8659 14.2878 15.8705 14.2787 15.8752 14.2696C15.8772 14.2656 15.8793 14.2616 15.8814 14.2576C15.9089 14.2036 15.9352 14.1489 15.9602 14.0934C15.9634 14.0865 15.9664 14.0794 15.9696 14.0724C15.9729 14.065 15.9762 14.0575 15.9795 14.0501C15.9827 14.0427 15.9859 14.0352 15.9891 14.0278C15.9917 14.0218 15.9943 14.0158 15.9968 14.0097C15.9997 14.0028 16.0026 13.9959 16.0055 13.989C16.0089 13.9808 16.0123 13.9727 16.0156 13.9645C16.0178 13.959 16.02 13.9535 16.0222 13.948C16.0247 13.9419 16.0272 13.9358 16.0296 13.9297L16.0346 13.9171C16.0364 13.9125 16.0382 13.9079 16.04 13.9033C16.0427 13.8962 16.0455 13.8891 16.0482 13.882C16.0513 13.8737 16.0544 13.8654 16.0575 13.8571C16.06 13.8506 16.0624 13.8441 16.0648 13.8376C16.067 13.8315 16.0692 13.8254 16.0714 13.8194C16.075 13.8096 16.0785 13.7998 16.0819 13.79C16.0833 13.7862 16.0846 13.7824 16.0859 13.7786C16.0897 13.7677 16.0935 13.7569 16.0972 13.746C16.0987 13.7415 16.1002 13.737 16.1017 13.7324C16.1047 13.7237 16.1075 13.7149 16.1104 13.7061C16.1126 13.6993 16.1149 13.6924 16.1171 13.6855C16.1195 13.6779 16.1219 13.6703 16.1243 13.6627C16.1266 13.6556 16.1287 13.6486 16.1309 13.6415C16.1333 13.6337 16.1357 13.6258 16.138 13.618C16.1401 13.6112 16.1421 13.6044 16.1441 13.5975C16.1463 13.5901 16.1485 13.5827 16.1506 13.5752C16.153 13.5671 16.1553 13.5591 16.1576 13.551C16.1591 13.5454 16.1607 13.5399 16.1622 13.5343C16.1647 13.5251 16.1673 13.5159 16.1698 13.5066C16.1714 13.5004 16.173 13.4942 16.1746 13.488C16.1769 13.4794 16.1791 13.4709 16.1813 13.4623C16.183 13.4557 16.1846 13.4491 16.1863 13.4425C16.1938 13.4122 16.2011 13.3817 16.208 13.351C16.2131 13.328 16.2181 13.3049 16.2229 13.2818C16.2277 13.2582 16.2323 13.2345 16.2367 13.2107C16.2381 13.2027 16.2396 13.1946 16.2411 13.1866C16.2416 13.1834 16.2422 13.1803 16.2427 13.1771C16.2449 13.1648 16.247 13.1525 16.2491 13.1401C16.2502 13.1334 16.2512 13.1267 16.2523 13.12C16.2535 13.1129 16.2546 13.1058 16.2557 13.0986C16.2572 13.0895 16.2585 13.0803 16.2599 13.0711C16.2609 13.0639 16.262 13.0568 16.263 13.0496C16.2642 13.0411 16.2654 13.0326 16.2665 13.0242C16.2674 13.0177 16.2682 13.0112 16.2691 13.0047C16.2703 12.9953 16.2715 12.9859 16.2726 12.9765C16.2735 12.9698 16.2742 12.9632 16.275 12.9565C16.276 12.9482 16.277 12.9399 16.2779 12.9315C16.2787 12.9242 16.2795 12.9169 16.2803 12.9096C16.2812 12.9003 16.2822 12.8909 16.2831 12.8816C16.2836 12.8758 16.2842 12.87 16.2847 12.8642C16.2857 12.8542 16.2866 12.8441 16.2874 12.834C16.2879 12.8288 16.2883 12.8236 16.2887 12.8183C16.2895 12.8082 16.2904 12.798 16.2911 12.7878C16.2918 12.7788 16.2924 12.7699 16.293 12.7609C16.2933 12.7553 16.2937 12.7498 16.2941 12.7442C16.2947 12.7333 16.2953 12.7224 16.2959 12.7115C16.2962 12.7055 16.2966 12.6995 16.2969 12.6935C16.2972 12.6871 16.2975 12.6808 16.2977 12.6744C16.2982 12.6638 16.2987 12.6531 16.2991 12.6424C16.2992 12.6399 16.2992 12.6375 16.2993 12.6351C16.2998 12.6217 16.3002 12.6083 16.3005 12.5949C16.3012 12.5633 16.3016 12.5317 16.3016 12.5Z" fill="#007AFF"/>
<circle cx="12.7257" cy="3.57603" r="3.57603" fill="#007AFF"/>
<circle cx="12.7257" cy="21.424" r="3.57603" fill="#007AFF"/>
<circle cx="3.57603" cy="12.3389" r="3.57603" fill="#007AFF"/>
</svg>
